<?xml version="1.0" encoding="UTF-8" standalone="no"?>
<!-- Created with Inkscape (http://www.inkscape.org/) -->

<svg
   xmlns:dc="http://purl.org/dc/elements/1.1/"
   xmlns:cc="http://creativecommons.org/ns#"
   xmlns:rdf="http://www.w3.org/1999/02/22-rdf-syntax-ns#"
   xmlns:svg="http://www.w3.org/2000/svg"
   xmlns="http://www.w3.org/2000/svg"
   xmlns:sodipodi="http://sodipodi.sourceforge.net/DTD/sodipodi-0.dtd"
   xmlns:inkscape="http://www.inkscape.org/namespaces/inkscape"
   version="1.1"
   id="svg2"
   xml:space="preserve"
   width="128.28546"
   height="139.2964"
   viewBox="0 0 128.28546 139.2964"
   sodipodi:docname="logo.svg"
   inkscape:version="0.92.2 2405546, 2018-03-11"><metadata
     id="metadata8"><rdf:RDF><cc:Work
         rdf:about=""><dc:format>image/svg+xml</dc:format><dc:type
           rdf:resource="http://purl.org/dc/dcmitype/StillImage" /><dc:title /></cc:Work></rdf:RDF></metadata><defs
     id="defs6"><linearGradient
       x1="0"
       y1="0"
       x2="1"
       y2="0"
       gradientUnits="userSpaceOnUse"
       gradientTransform="matrix(0,-46.513853,-46.513853,0,25.17552,42.032439)"
       spreadMethod="pad"
       id="linearGradient30"><stop
         style="stop-opacity:1;stop-color:#f14531"
         offset="0"
         id="stop24" /><stop
         style="stop-opacity:1;stop-color:#d23128"
         offset="0.330076"
         id="stop26" /><stop
         style="stop-opacity:1;stop-color:#98131a"
         offset="1"
         id="stop28" /></linearGradient></defs><sodipodi:namedview
     pagecolor="#ffffff"
     bordercolor="#666666"
     borderopacity="1"
     objecttolerance="10"
     gridtolerance="10"
     guidetolerance="10"
     inkscape:pageopacity="0"
     inkscape:pageshadow="2"
     inkscape:window-width="956"
     inkscape:window-height="1024"
     id="namedview4"
     showgrid="false"
     fit-margin-top="30"
     fit-margin-left="30"
     fit-margin-right="30"
     fit-margin-bottom="30"
     inkscape:zoom="0.74821532"
     inkscape:cx="9.8032537"
     inkscape:cy="-321.71873"
     inkscape:window-x="960"
     inkscape:window-y="26"
     inkscape:window-maximized="0"
     inkscape:current-layer="g10" /><g
     id="g10"
     inkscape:groupmode="layer"
     inkscape:label="ink_ext_XXXXXX"
     transform="matrix(1.3333333,0,0,-1.3333333,30,109.2964)"><path
       inkscape:connector-curvature="0"
       id="path14"
       style="fill:#f14531;fill-opacity:1;fill-rule:nonzero;stroke:none;stroke-width:0.13202386"
       d="M 51.980848,22.728701 V 15.029994 L 28.602858,1.6316735 28.547668,32.97296 l 8.352093,4.830093 -7.005449,4.041778 -20.93621,-12.112133 7.002412,-4.039665 5.58527,3.230491 V 1.6729309 L -1.6300492,15.029994 V 46.449163 L 25.182119,61.916548 51.980848,46.456819 v -7.59652 L 37.897733,30.736212 v -8.083293 l 7.107107,4.099869 6.976008,-4.024087 m 7.002018,27.772405 -33.78992,19.492661 -33.8140763,-19.494245 -0.01083,-39.54682 h 0.057244 l 33.7259424,-19.45541 0.01188,-0.02115 0.01228,0.0072 0.01189,-0.0072 0.01189,0.02115 33.783714,19.488416 -0.033,0.05677 h 0.03299 v 15.725756 l -0.0021,0.0011 0.0021,0.0037 -6.971519,4.021974 6.971519,4.021579 -0.06509,0.112484 h 0.06509 v 15.572081" /><path
       style="fill:#ffffff;stroke:none;stroke-width:0.99017888px;stroke-linecap:butt;stroke-linejoin:miter;stroke-opacity:1"
       d="M -4.2034343,49.13952 24.939017,66.455236 54.76689,49.494289 55.702667,37.563139 45.993986,30.076927 56.755414,23.877409 54.532945,12.180205 27.512403,-3.611022 -6.6434357,11.595344 Z"
       id="path33"
       inkscape:connector-curvature="0"
       sodipodi:nodetypes="cccccccccc" /><path
       inkscape:connector-curvature="0"
       id="path32"
       style="fill:url(#linearGradient30);fill-opacity:1;fill-rule:nonzero;stroke:none;stroke-width:0.13202386"
       d="m 25.187269,-8.523852 -0.01189,0.0072 -0.01228,-0.0072 -0.01188,0.02115 -33.7259417,19.45541 h -0.057244 l 0.010835,39.54682 33.8140797,19.494239 33.78992,-19.492661 V 34.929025 h -0.06509 l 0.06509,-0.112484 -6.97152,-4.021578 6.97152,-4.021975 -0.0021,-0.0037 0.0021,-0.0011 V 11.042479 h -0.033 l 0.033,-0.05677 -33.783715,-19.488417 -0.01188,-0.02115 m 3.360402,41.496812 v 0 l 0.05518,-31.3412858 23.37799,13.3983208 v 7.698707 l -6.976007,4.024087 -7.107108,-4.099869 v 8.083293 l 14.083115,8.124087 v 7.59652 L 25.182119,61.916548 -1.6300492,46.449163 V 15.029994 L 21.545787,1.6729309 V 28.923524 l -5.585269,-3.230491 -7.002413,4.039665 20.93621,12.112133 7.00545,-4.041778 -8.352094,-4.830093" /></g></svg>