<?xml version="1.0" encoding="utf-8"?>
<!-- Generator: Adobe Illustrator 16.0.0, SVG Export Plug-In . SVG Version: 6.00 Build 0)  -->
<!DOCTYPE svg PUBLIC "-//W3C//DTD SVG 1.1//EN" "http://www.w3.org/Graphics/SVG/1.1/DTD/svg11.dtd">
<svg version="1.1" id="Layer_1" xmlns="http://www.w3.org/2000/svg" xmlns:xlink="http://www.w3.org/1999/xlink" x="0px" y="0px"
	 width="800px" height="800px" viewBox="0 0 800 800" enable-background="new 0 0 800 800" xml:space="preserve">
<path fill="#FFFFFF" d="M529.575,392.02c-71.519-38.219-139.996-73.354-209.993-110.039v219.457
	c73.659-40.043,151.298-76.714,210.297-109.417H529.575L529.575,392.02z"/>
<path fill="#E8E0E0" d="M529.575,392.02c-71.519-38.219-209.993-110.039-209.993-110.039l184.625,124.09
	C504.221,406.071,470.576,424.725,529.575,392.02L529.575,392.02z"/>
<path fill="#CD201F" d="M333.041,673.226c-148.547-2.734-199.284-5.194-230.47-11.62c-21.1-4.27-39.435-13.748-52.878-27.494
	c-10.391-10.405-18.653-26.28-25.064-48.307c-5.499-18.35-7.641-33.617-10.693-70.909c-4.675-84.165-5.789-152.975,0-229.861
	c4.774-42.458,7.091-92.862,38.812-122.269c14.978-13.762,32.401-22.619,51.966-26.279c30.563-5.804,160.775-10.392,295.576-10.392
	c134.496,0,264.999,4.587,295.59,10.392c24.441,4.587,47.364,18.335,60.822,36.063c28.941,45.526,29.449,102.138,32.387,146.42
	c1.216,21.1,1.216,140.907,0,162.005c-4.572,69.983-8.248,94.744-18.639,120.416c-6.426,16.207-11.91,24.76-21.403,34.238
	c-14.888,14.587-33.868,24.289-54.412,27.814C566.086,673.109,456.93,675.208,333.041,673.226L333.041,673.226z M529.895,392.02
	c-71.519-38.219-139.996-73.658-209.993-110.343v219.471c73.659-40.042,151.312-76.728,210.297-109.432L529.895,392.02
	L529.895,392.02z"/>
</svg>
