<?xml version="1.0" encoding="UTF-8" standalone="no"?>
<!-- Created with Inkscape (http://www.inkscape.org/) -->

<svg
   xmlns:dc="http://purl.org/dc/elements/1.1/"
   xmlns:cc="http://creativecommons.org/ns#"
   xmlns:rdf="http://www.w3.org/1999/02/22-rdf-syntax-ns#"
   xmlns:svg="http://www.w3.org/2000/svg"
   xmlns="http://www.w3.org/2000/svg"
   xmlns:sodipodi="http://sodipodi.sourceforge.net/DTD/sodipodi-0.dtd"
   xmlns:inkscape="http://www.inkscape.org/namespaces/inkscape"
   width="1024px"
   height="600px"
   viewBox="0 0 1024 600"
   version="1.1"
   id="SVGRoot"
   sodipodi:docname="People's_Protection_Units_Flag Corregido.svg"
   inkscape:version="0.92.0 r15299">
  <sodipodi:namedview
     id="base"
     pagecolor="#ffffff"
     bordercolor="#666666"
     borderopacity="1.0"
     inkscape:pageopacity="0.0"
     inkscape:pageshadow="2"
     inkscape:zoom="0.79785156"
     inkscape:cx="512"
     inkscape:cy="300"
     inkscape:document-units="px"
     inkscape:current-layer="layer1"
     showgrid="false"
     inkscape:window-width="1366"
     inkscape:window-height="705"
     inkscape:window-x="-8"
     inkscape:window-y="-8"
     inkscape:window-maximized="1"
     showguides="true"
     inkscape:guide-bbox="true">
    <sodipodi:guide
       position="954.59416,87.681241"
       orientation="0,1"
       id="guide4490"
       inkscape:locked="false" />
    <sodipodi:guide
       position="966.10938,300"
       orientation="0,1"
       id="guide4504"
       inkscape:locked="false"
       inkscape:label=""
       inkscape:color="rgb(0,0,255)" />
    <sodipodi:guide
       position="281.59622,438.15952"
       orientation="1,0"
       id="guide4506"
       inkscape:locked="false" />
    <sodipodi:guide
       position="500.195,306.882"
       orientation="0,1"
       id="guide4522"
       inkscape:locked="false"
       inkscape:label=""
       inkscape:color="rgb(0,0,255)" />
    <sodipodi:guide
       position="0,599.42578"
       orientation="1,0"
       id="guide4539"
       inkscape:locked="false" />
    <sodipodi:guide
       position="15,577.7207"
       orientation="1,0"
       id="guide4541"
       inkscape:locked="false"
       inkscape:label=""
       inkscape:color="rgb(0,0,255)" />
    <sodipodi:guide
       position="1024,299.40625"
       orientation="1,0"
       id="guide4543"
       inkscape:locked="false"
       inkscape:label=""
       inkscape:color="rgb(0,0,255)" />
    <sodipodi:guide
       position="0,0"
       orientation="-0.28115139,0.95966343"
       id="guide4545"
       inkscape:locked="false" />
    <sodipodi:guide
       position="0.2890625,0"
       orientation="0,1"
       id="guide4547"
       inkscape:locked="false"
       inkscape:label=""
       inkscape:color="rgb(0,0,255)" />
    <sodipodi:guide
       position="0,600"
       orientation="0,1"
       id="guide4549"
       inkscape:locked="false"
       inkscape:label=""
       inkscape:color="rgb(0,0,255)" />
    <sodipodi:guide
       position="0,600"
       orientation="0.28115139,0.95966343"
       id="guide4551"
       inkscape:locked="false"
       inkscape:label=""
       inkscape:color="rgb(0,0,255)" />
    <sodipodi:guide
       position="-4.217287,585.60505"
       orientation="0.28115241,0.95966313"
       id="guide4556"
       inkscape:locked="false" />
    <sodipodi:guide
       position="-4.217287,14.39495"
       orientation="-0.2811524,0.95966313"
       id="guide4563"
       inkscape:locked="false" />
  </sodipodi:namedview>
  <defs
     id="defs6199" />
  <metadata
     id="metadata6202">
    <rdf:RDF>
      <cc:Work
         rdf:about="">
        <dc:format>image/svg+xml</dc:format>
        <dc:type
           rdf:resource="http://purl.org/dc/dcmitype/StillImage" />
        <dc:title></dc:title>
      </cc:Work>
    </rdf:RDF>
  </metadata>
  <g
     id="layer1"
     inkscape:groupmode="layer"
     inkscape:label="Capa 1">
    <path
       style="fill:#006400;stroke:none;stroke-width:1px;stroke-linecap:butt;stroke-linejoin:miter;stroke-opacity:1;fill-opacity:1"
       d="M 0,0 V 600 L 1024,300 Z"
       id="path4567"
       inkscape:connector-curvature="0"
       sodipodi:nodetypes="cccc" />
    <path
       style="fill:#ffde00;stroke:none;stroke-width:1px;stroke-linecap:butt;stroke-linejoin:miter;stroke-opacity:1;fill-opacity:1"
       d="M 15,20.025037 V 579.97496 L 970.64416,300 Z"
       id="path4565"
       inkscape:connector-curvature="0"
       sodipodi:nodetypes="cccc" />
    <g
       aria-label="Y"
       transform="scale(1.0203326,0.98007258)"
       style="font-style:normal;font-variant:normal;font-weight:normal;font-stretch:normal;font-size:84.28338623px;line-height:125%;font-family:Georgia;-inkscape-font-specification:Georgia;text-align:start;letter-spacing:0px;word-spacing:0px;writing-mode:lr-tb;text-anchor:start;display:inline;fill:#006400;fill-opacity:1;stroke:none;stroke-width:3.46714807"
       id="text4014-0-0">
      <path
         d="m 184.03277,310.8248 q -0.69961,0.0412 -2.22231,0.57615 -1.5227,0.49385 -2.18116,0.9877 -1.60501,0.98769 -2.18117,1.5227 -0.57615,0.535 -2.22231,2.79847 -3.21001,4.52694 -5.92618,9.17734 -2.71616,4.6504 -6.79041,11.8112 -1.5227,2.63385 -2.01654,4.23886 -0.49385,1.605 -0.49385,4.6504 v 11.15273 q 0,1.48155 0.57615,2.5927 0.61731,1.07001 2.0577,1.72847 0.86424,0.32923 3.08655,0.82308 2.22232,0.4527 3.5804,0.49385 v 2.92193 h -27.32625 v -2.92193 q 1.15231,-0.0823 3.45693,-0.28808 2.30463,-0.24692 3.21002,-0.61731 1.48154,-0.61731 2.01654,-1.68731 0.57616,-1.07001 0.57616,-2.63386 v -14.19813 q 0,-0.65846 -0.82308,-2.38693 -0.78193,-1.76962 -1.89309,-3.90963 -2.46924,-4.77386 -5.47348,-10.32965 -3.00424,-5.55579 -5.22656,-9.50657 -1.35808,-2.34578 -2.42808,-3.53925 -1.02885,-1.19346 -2.38693,-2.09885 -0.9877,-0.61731 -2.38694,-0.94654 -1.35808,-0.32924 -2.46923,-0.41154 v -2.92194 h 24.89816 v 2.92194 q -4.1977,0.0823 -5.92617,0.57615 -1.72847,0.49385 -1.72847,1.39924 0,0.24692 0.24692,0.86423 0.24693,0.61731 0.69962,1.56385 0.535,1.07001 1.27578,2.46924 0.74077,1.35809 1.39923,2.63386 1.93424,3.66271 3.95079,7.32541 2.01654,3.62155 5.26771,9.46542 6.46117,-10.41196 9.8358,-16.21467 3.41578,-5.84387 3.41578,-6.99618 0,-0.94655 -0.69961,-1.5227 -0.69962,-0.57616 -1.85193,-0.90539 -1.19347,-0.32923 -2.59271,-0.41154 -1.39923,-0.12346 -2.5927,-0.24692 v -2.92194 h 20.28892 z"
         style="font-style:normal;font-variant:normal;font-weight:normal;font-stretch:normal;font-family:Georgia;-inkscape-font-specification:Georgia;fill:#006400;fill-opacity:1;stroke-width:3.46714807"
         id="path6815" />
    </g>
    <g
       aria-label="P"
       transform="scale(1.0203326,0.98007258)"
       style="font-style:normal;font-variant:normal;font-weight:normal;font-stretch:normal;font-size:84.28338623px;line-height:125%;font-family:'Times New Roman';-inkscape-font-specification:'Times New Roman';text-align:start;letter-spacing:0px;word-spacing:0px;writing-mode:lr-tb;text-anchor:start;display:inline;fill:#006400;fill-opacity:1;stroke:none;stroke-width:3.46714807"
       id="text4014-7-6-4">
      <path
         d="m 298.96785,406.29059 q 0,4.56809 -1.81078,8.10733 -1.76962,3.49809 -4.93848,5.80272 -3.1277,2.30462 -6.87271,3.37463 -3.74502,1.07 -7.94273,1.07 h -6.54348 v 17.69622 q 0,1.44039 0.45269,2.55155 0.49385,1.07 1.97539,1.64616 0.74078,0.28807 2.59271,0.535 1.89308,0.24692 3.45693,0.28808 v 2.92193 h -25.06278 v -2.92193 q 0.98769,-0.0823 2.83962,-0.28808 1.89309,-0.20577 2.63386,-0.535 1.23462,-0.53501 1.76962,-1.56386 0.57616,-1.02885 0.57616,-2.63385 V 400.1998 q 0,-1.44039 -0.41154,-2.59271 -0.41154,-1.15231 -1.93424,-1.72846 -1.56385,-0.53501 -3.1277,-0.74078 -1.5227,-0.24692 -2.63386,-0.32923 v -2.92193 h 26.66779 q 8.14849,0 13.21043,3.95078 5.1031,3.90963 5.1031,10.45312 z m -12.51082,9.95926 q 1.39924,-1.97539 1.85193,-4.07424 0.4527,-2.14001 0.4527,-3.82732 0,-2.34578 -0.57616,-4.77387 -0.535,-2.42808 -1.89308,-4.23886 -1.44039,-1.93424 -3.78617,-3.00424 -2.34578,-1.07 -5.84387,-1.07 h -5.80271 v 25.80355 h 4.19771 q 4.44463,0 7.20195,-1.35808 2.79847,-1.39924 4.1977,-3.45694 z"
         style="font-style:normal;font-variant:normal;font-weight:normal;font-stretch:normal;font-family:Georgia;-inkscape-font-specification:Georgia;fill:#006400;fill-opacity:1;stroke-width:3.46714807"
         id="path6812" />
    </g>
    <g
       aria-label="G"
       transform="scale(1.0203326,0.98007258)"
       style="font-style:normal;font-variant:normal;font-weight:normal;font-stretch:normal;font-size:84.28338623px;line-height:125%;font-family:'Times New Roman';-inkscape-font-specification:'Times New Roman';text-align:start;letter-spacing:0px;word-spacing:0px;writing-mode:lr-tb;text-anchor:start;display:inline;fill:#006400;fill-opacity:1;stroke:none;stroke-width:3.46714759"
       id="text4014-7-0-3-8">
      <path
         d="m 426.50909,340.37128 q -0.9877,0.12346 -2.67501,0.41154 -1.64616,0.24692 -2.67501,0.74077 -1.23462,0.61731 -1.76962,1.76962 -0.49385,1.11116 -0.49385,2.63386 v 4.52694 q 0,4.93848 0.0412,6.66695 0.0823,1.72847 0.16462,2.83962 -5.47348,2.46924 -10.90581,3.78617 -5.43233,1.31693 -10.65889,1.31693 -5.59694,0 -10.78234,-2.09886 -5.18541,-2.09885 -9.05388,-5.96732 -3.90963,-3.90963 -6.21426,-9.50658 -2.30462,-5.59694 -2.30462,-12.51081 0,-6.66695 2.18116,-12.3462 2.22232,-5.72041 6.25541,-9.91812 3.90963,-4.1154 9.3008,-6.37887 5.43233,-2.30462 11.60543,-2.30462 4.93848,0 8.60118,1.19347 3.66271,1.19346 6.46118,2.88078 l 1.68732,-2.79848 h 3.29232 l 0.37038,20.41239 h -3.37463 q -0.86423,-3.37463 -2.14,-6.6258 -1.27578,-3.29232 -3.29232,-5.88502 -2.01655,-2.5927 -4.93848,-4.1154 -2.88078,-1.56385 -6.91387,-1.56385 -4.40348,0 -7.86042,1.81078 -3.45693,1.76962 -6.00848,5.30886 -2.5104,3.41578 -3.86848,8.51888 -1.35808,5.1031 -1.35808,11.39966 0,5.55579 1.31693,10.49427 1.35808,4.89732 3.90963,8.47772 2.55155,3.66271 6.37887,5.76156 3.82732,2.09885 8.68349,2.09885 3.62155,0 6.58464,-1.11115 3.00424,-1.11116 4.23886,-2.34578 0.32923,-2.14001 0.32923,-4.32117 0.0412,-2.18116 0.0412,-3.70386 V 346.709 q 0,-1.72847 -0.49385,-3.0454 -0.45269,-1.35808 -1.93424,-1.97539 -1.35808,-0.61731 -3.70386,-0.90539 -2.30462,-0.32923 -3.62155,-0.41154 v -3.00424 h 25.59779 z"
         style="font-style:normal;font-variant:normal;font-weight:normal;font-stretch:normal;font-family:Georgia;-inkscape-font-specification:Georgia;fill:#006400;fill-opacity:1;stroke-width:3.46714759"
         id="path6809" />
    </g>
    <path
       style="fill:#006400;stroke:none;stroke-width:1px;stroke-linecap:butt;stroke-linejoin:miter;stroke-opacity:1;fill-opacity:1"
       d="M 281.5957 161.83984 L 252.12305 252.55078 L 156.74414 252.55078 L 233.90625 308.61328 L 204.43359 399.32422 L 281.59766 343.26172 L 358.75977 399.32422 L 329.28516 308.61328 L 406.44922 252.55078 L 311.07031 252.55078 L 281.5957 161.83984 z "
       id="path4533" />
    <path
       style="fill:#dd281f;stroke:none;stroke-width:1px;stroke-linecap:butt;stroke-linejoin:miter;stroke-opacity:1;fill-opacity:1"
       d="M 281.5957 181.41406 L 256.51758 258.59961 L 175.35938 258.59961 L 241.01758 306.30273 L 215.93945 383.48828 L 281.5957 335.78516 L 347.25391 383.48828 L 322.17383 306.30273 L 387.83203 258.59961 L 306.67578 258.59961 L 281.5957 181.41406 z "
       id="path4536" />
  </g>
</svg>
