<?xml version="1.0" encoding="UTF-8" standalone="no"?>
<!-- Created with Inkscape (http://www.inkscape.org/) -->

<svg
   xmlns:dc="http://purl.org/dc/elements/1.1/"
   xmlns:cc="http://creativecommons.org/ns#"
   xmlns:rdf="http://www.w3.org/1999/02/22-rdf-syntax-ns#"
   xmlns:svg="http://www.w3.org/2000/svg"
   xmlns="http://www.w3.org/2000/svg"
   xmlns:sodipodi="http://sodipodi.sourceforge.net/DTD/sodipodi-0.dtd"
   xmlns:inkscape="http://www.inkscape.org/namespaces/inkscape"
   width="282.22223mm"
   height="199.5851mm"
   viewBox="0 0 282.22223 199.5851"
   id="svg_ffbsee"
   version="1.1"
   inkscape:version="0.92.1 r"
   sodipodi:docname="Logo_FFBSee.svg"
   inkscape:export-filename="W:\git\Grafik\Logo_FFBSee.png"
   inkscape:export-xdpi="800"
   inkscape:export-ydpi="800">
  <defs
     id="defs4941" />
  <sodipodi:namedview
     id="base"
     pagecolor="#ffffff"
     bordercolor="#666666"
     borderopacity="1.0"
     inkscape:pageopacity="0.0"
     inkscape:pageshadow="2"
     inkscape:zoom="0.56689453"
     inkscape:cx="12.826158"
     inkscape:cy="232.76408"
     inkscape:document-units="px"
     inkscape:current-layer="layer1"
     showgrid="false"
     showguides="true"
     inkscape:guide-bbox="true"
     fit-margin-top="0"
     fit-margin-left="0"
     fit-margin-right="0"
     fit-margin-bottom="0"
     inkscape:window-width="2560"
     inkscape:window-height="1346"
     inkscape:window-x="0"
     inkscape:window-y="0"
     inkscape:window-maximized="1">
    <sodipodi:guide
       position="0,0"
       orientation="1,0"
       id="guide5871"
       inkscape:locked="false" />
    <sodipodi:guide
       position="282.42395,199.58545"
       orientation="0,1"
       id="guide5877"
       inkscape:locked="false" />
    <sodipodi:guide
       position="282.22223,-0.0011024306"
       orientation="0,1"
       id="guide5990"
       inkscape:locked="false" />
    <sodipodi:guide
       position="282.22223,-0.0011024306"
       orientation="1,0"
       id="guide4175"
       inkscape:locked="false" />
  </sodipodi:namedview>
  <metadata
     id="metadata4944">
    <rdf:RDF>
      <cc:Work
         rdf:about="">
        <dc:format>image/svg+xml</dc:format>
        <dc:type
           rdf:resource="http://purl.org/dc/dcmitype/StillImage" />
        <dc:title />
      </cc:Work>
    </rdf:RDF>
  </metadata>
  <g
     inkscape:label="Ebene 1"
     inkscape:groupmode="layer"
     id="layer1"
     transform="translate(685.57434,-1037.4099)">
    <flowRoot
       xml:space="preserve"
       id="flowRoot5900"
       style="font-style:normal;font-weight:normal;line-height:0.01%;font-family:sans-serif;letter-spacing:0px;word-spacing:0px;fill:#000000;fill-opacity:1;stroke:none;stroke-width:1px;stroke-linecap:butt;stroke-linejoin:miter;stroke-opacity:1"
       transform="translate(-681.15775,-187.48634)"><flowRegion
         id="flowRegion5902"><rect
           id="rect5904"
           width="1999.4039"
           height="179.43582"
           x="-4.5352678"
           y="1220.6235" /></flowRegion><flowPara
         id="flowPara5906"
         style="font-style:normal;font-variant:normal;font-weight:normal;font-stretch:normal;font-size:40px;line-height:1.25;font-family:Lato;-inkscape-font-specification:Lato"> </flowPara></flowRoot>    <rect
       y="997.89764"
       x="-741.44775"
       height="279.00967"
       width="394.53293"
       id="rect4177"
       style="opacity:1;fill:#ffffff;fill-opacity:1;stroke:none;stroke-width:0.03465098;stroke-miterlimit:3.5999999;stroke-dasharray:none;stroke-opacity:1" />
    <rect
       style="opacity:1;fill:#ffffff;fill-opacity:1;stroke:none;stroke-width:0.03465098;stroke-miterlimit:3.5999999;stroke-dasharray:none;stroke-opacity:1"
       id="rect4173"
       width="282.22168"
       height="199.5843"
       x="-685.57434"
       y="1037.4108" />
    <path
       style="color:#000000;font-style:normal;font-variant:normal;font-weight:normal;font-stretch:normal;font-size:medium;line-height:normal;font-family:sans-serif;text-indent:0;text-align:start;text-decoration:none;text-decoration-line:none;text-decoration-style:solid;text-decoration-color:#000000;letter-spacing:normal;word-spacing:normal;text-transform:none;direction:ltr;block-progression:tb;writing-mode:lr-tb;baseline-shift:baseline;text-anchor:start;white-space:normal;clip-rule:nonzero;display:inline;overflow:visible;visibility:visible;opacity:1;isolation:auto;mix-blend-mode:normal;color-interpolation:sRGB;color-interpolation-filters:linearRGB;solid-color:#000000;solid-opacity:1;fill:#de2c68;fill-opacity:1;fill-rule:nonzero;stroke:#ffffff;stroke-width:0.1989027;stroke-linecap:butt;stroke-linejoin:miter;stroke-miterlimit:4;stroke-dasharray:none;stroke-dashoffset:0;stroke-opacity:1;color-rendering:auto;image-rendering:auto;shape-rendering:auto;text-rendering:auto;enable-background:accumulate"
       d="m -477.92256,1057.673 c -27.18562,0 -49.22952,22.4332 -49.22952,50.0513 0,27.6181 22.0439,50.0513 49.22952,50.0513 27.18563,0 49.22951,-22.4332 49.22951,-50.0513 0,-27.6181 -22.04388,-50.0513 -49.22951,-50.0513 z m 0,2.3406 c 25.89906,0 46.8889,21.3363 46.8889,47.7107 0,26.3744 -20.98984,47.711 -46.8889,47.711 -25.89905,0 -46.8889,-21.3366 -46.8889,-47.711 0,-26.3744 20.98985,-47.7107 46.8889,-47.7107 z"
       id="circle3878"
       inkscape:connector-curvature="0" />
    <path
       style="color:#000000;font-style:normal;font-variant:normal;font-weight:normal;font-stretch:normal;font-size:medium;line-height:normal;font-family:sans-serif;text-indent:0;text-align:start;text-decoration:none;text-decoration-line:none;text-decoration-style:solid;text-decoration-color:#000000;letter-spacing:normal;word-spacing:normal;text-transform:none;direction:ltr;block-progression:tb;writing-mode:lr-tb;baseline-shift:baseline;text-anchor:start;white-space:normal;clip-rule:nonzero;display:inline;overflow:visible;visibility:visible;opacity:1;isolation:auto;mix-blend-mode:normal;color-interpolation:sRGB;color-interpolation-filters:linearRGB;solid-color:#000000;solid-opacity:1;fill:#de2c68;fill-opacity:1;fill-rule:nonzero;stroke:#ffffff;stroke-width:0.1989027;stroke-linecap:butt;stroke-linejoin:miter;stroke-miterlimit:4;stroke-dasharray:none;stroke-dashoffset:0;stroke-opacity:1;color-rendering:auto;image-rendering:auto;shape-rendering:auto;text-rendering:auto;enable-background:accumulate"
       d="m -545.90896,1061.9617 c -23.63282,0 -42.79378,19.5488 -42.79378,43.6089 0,24.0602 19.16096,43.6087 42.79378,43.6087 23.63283,0 42.79351,-19.5485 42.79351,-43.6087 0,-24.0601 -19.16068,-43.6089 -42.79351,-43.6089 z m 0,2.1922 c 22.42495,0 40.60128,18.5186 40.60128,41.4167 0,22.8982 -18.17633,41.4167 -40.60128,41.4167 -22.42494,0 -40.60155,-18.5185 -40.60155,-41.4167 0,-22.8981 18.17661,-41.4167 40.60155,-41.4167 z"
       id="ellipse5364"
       inkscape:connector-curvature="0" />
    <path
       inkscape:connector-curvature="0"
       id="path3338"
       d="m -478.08865,1207.7526 c -1.08728,-0.149 -2.12824,-0.3838 -2.31338,-0.5218 -0.18506,-0.138 -1.36059,-1.0224 -2.61224,-1.9654 -2.65587,-2.0009 -4.8324,-2.9641 -7.00754,-3.1011 -0.97689,-0.062 -1.8453,-0.3917 -2.33192,-0.8865 -0.42643,-0.4338 -1.66596,-0.9873 -2.75455,-1.2301 -2.22099,-0.4955 -2.75989,-0.9906 -3.5439,-3.2564 -0.49079,-1.4185 -0.72342,-1.6413 -2.3397,-2.2415 -2.88835,-1.0725 -4.33788,-1.7427 -5.83134,-2.6961 -0.77103,-0.4922 -1.53699,-0.868 -1.70209,-0.8351 -0.16509,0.033 -1.86881,-0.9389 -3.78604,-2.1598 -1.91728,-1.2208 -4.14139,-2.4825 -4.94246,-2.8038 -1.75484,-0.7037 -2.75612,-2.4374 -2.91332,-5.0443 -0.0574,-0.9516 -0.33632,-2.3385 -0.61963,-3.0821 -0.44135,-1.1575 -0.81342,-1.474 -2.58775,-2.2014 -1.13971,-0.4673 -2.32055,-0.8001 -2.62406,-0.7395 -0.30345,0.061 -0.65808,0 -0.788,-0.1432 -0.12992,-0.1394 -1.85795,-0.6914 -3.84015,-1.2268 -1.98217,-0.5353 -3.84324,-1.1673 -4.13572,-1.4044 -0.29246,-0.2371 -0.78684,-0.3826 -1.09853,-0.3233 -0.3117,0.059 -0.94721,-0.017 -1.41224,-0.1701 -3.67027,-1.2058 -5.49906,-1.9546 -7.70866,-3.1563 -5.4966,-2.9895 -5.61633,-3.0357 -10.66234,-4.1191 -1.7118,-0.3675 -8.01679,-2.0637 -11.26664,-3.0311 -1.58501,-0.4718 -3.60496,-0.814 -4.48879,-0.7605 -1.64107,0.099 -5.36538,-0.6165 -5.83671,-1.122 -0.33533,-0.3596 -5.48276,-1.7801 -6.04444,-1.668 -0.23381,0.047 -1.62047,-0.2231 -3.08142,-0.5994 -2.89621,-0.7461 -5.14861,-2.3116 -6.12939,-4.2602 -0.3094,-0.6146 -0.85029,-1.3096 -1.20198,-1.5443 -0.96251,-0.6424 -4.58317,0.1946 -6.35386,1.4688 -3.5147,2.529 -5.01155,3.1773 -7.40963,3.2089 -1.23466,0.016 -3.82891,0.2418 -5.76499,0.5012 -3.26148,0.4369 -3.65195,0.4099 -5.31384,-0.3671 -1.57402,-0.736 -1.95832,-0.776 -3.13718,-0.3264 -0.73892,0.2818 -5.72826,1.3603 -11.0874,2.3966 -9.69334,1.8745 -9.75121,1.8903 -11.14201,3.0372 -0.76896,0.6341 -2.1748,1.5113 -3.12419,1.9494 -1.94841,0.8992 -3.84364,2.2986 -4.29129,3.1686 -0.92576,1.7993 -4.06386,5.3949 -5.05691,5.7943 -0.61581,0.2476 -1.55352,0.9271 -2.08378,1.5099 -0.53029,0.5828 -1.1646,1.0996 -1.40959,1.1485 -0.245,0.049 -0.89529,0.5033 -1.44509,1.0098 -0.54979,0.5065 -1.5741,1.0361 -2.27618,1.1769 -0.86984,0.1745 -1.5643,0.616 -2.17989,1.3861 -0.59451,0.7437 -1.45058,1.3005 -2.50386,1.6286 -0.96896,0.3018 -1.86195,0.8539 -2.26313,1.3991 -0.9475,1.2876 -4.16952,1.9193 -5.73586,1.1244 -0.61319,-0.3112 -1.58011,-0.5748 -2.14872,-0.5857 -0.56856,-0.011 -1.3552,-0.2584 -1.74803,-0.5499 -0.40706,-0.302 -1.46222,-0.4848 -2.45332,-0.4251 -2.1518,0.1298 -3.09912,-0.4723 -2.24855,-1.4291 0.45052,-0.5068 1.18686,-0.7235 3.31405,-0.9752 1.50414,-0.1779 3.1672,-0.2509 3.69573,-0.1621 1.66263,0.2793 3.43774,-0.2986 6.08832,-1.982 1.41144,-0.8963 3.50309,-2.1098 4.64819,-2.6966 1.14502,-0.5868 2.21969,-1.2734 2.38815,-1.5258 0.1685,-0.2525 0.56399,-0.5104 0.87896,-0.5732 0.31495,-0.063 1.19713,-0.9808 1.96037,-2.0399 0.76325,-1.0591 1.97734,-2.345 2.69802,-2.8576 0.72067,-0.5126 1.38121,-1.1222 1.46781,-1.3547 0.0866,-0.2325 0.5701,-0.5051 1.0744,-0.6057 1.52682,-0.3046 9.17341,-12.4332 8.85256,-14.0415 -0.0834,-0.4181 -0.62697,-1.019 -1.20791,-1.3353 -0.58093,-0.3163 -1.38153,-0.7726 -1.77913,-1.0139 -0.39763,-0.2413 -1.34505,-0.4316 -2.1054,-0.4229 -0.76036,0.01 -1.80774,-0.2 -2.32755,-0.4637 -0.51978,-0.2638 -1.46727,-0.4861 -2.10557,-0.494 -0.6383,-0.01 -1.43453,-0.1651 -1.76944,-0.3492 -0.33492,-0.1841 -1.27378,-0.4065 -2.08641,-0.4942 -0.81262,-0.088 -1.72888,-0.2914 -2.03611,-0.4527 -0.57732,-0.303 -2.53932,-0.9204 -5.32767,-1.6764 -0.88249,-0.2392 -2.03344,-0.8388 -2.55774,-1.3322 l -0.95326,-0.8972 1.23495,-1.6751 c 1.34222,-1.8205 5.01398,-4.1229 6.46663,-4.0548 4.38246,0.2054 4.72712,0.2689 9.08409,1.6722 3.0061,0.9682 4.70315,0.9293 4.49718,-0.1031 -0.106,-0.5313 -3.21207,-2.3118 -3.82108,-2.1903 -0.31039,0.062 -3.62614,-1.3902 -4.15709,-1.8206 -0.38415,-0.3114 -0.37441,-0.6409 0.0433,-1.464 0.29645,-0.5842 0.73902,-1.1021 0.98342,-1.1509 0.47574,-0.095 3.33168,0.7038 5.10431,1.4273 2.59537,1.0595 5.98067,2.0767 10.66567,3.2047 1.04407,0.2514 2.84144,0.6891 3.99414,0.9727 1.15273,0.2836 2.28971,0.4769 2.52663,0.4297 0.23693,-0.047 1.07684,0.1104 1.86651,0.3505 0.78962,0.24 1.67496,0.3887 1.96743,0.3303 0.2924,-0.058 1.15208,0.082 1.91035,0.313 0.7583,0.2306 2.07465,0.4652 2.92519,0.5215 3.36713,0.223 9.83755,3.8728 10.21437,5.7616 0.29718,1.4896 -0.76984,2.0737 -4.76701,2.6094 l -3.56585,0.4779 -2.06512,-1.2145 c -3.66461,-2.155 -4.3162,-2.3656 -6.89291,-2.228 -3.5078,0.1873 -3.3615,0.098 -3.01434,1.8382 0.47363,2.3742 1.15858,3.0783 3.12174,3.209 0.93353,0.062 1.99244,0.2782 2.35314,0.4801 0.36067,0.202 1.60659,0.3329 2.76871,0.291 1.1621,-0.042 2.57469,0.015 3.13911,0.1263 0.58134,0.1147 1.57471,-0.011 2.29155,-0.2892 0.69593,-0.2704 2.56699,-0.9309 4.15791,-1.4678 3.99188,-1.3473 4.55687,-1.1732 7.15415,2.2042 1.63658,2.1282 2.31218,2.7215 3.63195,3.1895 l 1.62136,0.575 1.82714,-1.1886 c 1.00492,-0.6537 2.12849,-1.582 2.49679,-2.0629 0.59737,-0.7799 1.06464,-0.9432 4.32807,-1.5119 2.58197,-0.4501 4.01852,-0.5332 4.88228,-0.2827 1.19978,0.3479 9.14774,-0.4982 10.06518,-1.0716 0.63535,-0.397 0.1462,-1.9149 -1.05822,-3.2842 -0.60806,-0.6913 -1.32312,-1.8077 -1.58902,-2.4809 -0.62269,-1.5765 -3.20036,-3.7429 -6.35636,-5.3421 -1.41879,-0.719 -2.79925,-1.7168 -3.2015,-2.3141 -0.38895,-0.5775 -1.1473,-1.3356 -1.68518,-1.6847 -0.97246,-0.631 -1.1543,-1.0169 -3.48572,-7.399 -0.94897,-2.5979 -2.11179,-3.8622 -4.5162,-4.9103 -6.17036,-2.6899 -5.95308,-2.6325 -8.63019,-2.2773 -2.74911,0.3648 -4.17431,-0.01 -7.31397,-1.8985 -2.18883,-1.32 -4.40272,-2.0197 -8.67918,-2.7429 -1.95436,-0.3305 -3.74979,-0.6806 -3.98983,-0.7781 -0.24007,-0.098 -0.94982,-0.3942 -1.57722,-0.6593 -1.306,-0.552 -14.28468,-9.3161 -14.36302,-9.6989 -0.0277,-0.139 -0.47489,-0.4231 -0.99221,-0.6316 -1.10768,-0.4464 -2.1566,-2.8863 -1.77778,-4.1353 0.12971,-0.4276 1.01458,-1.3558 1.9664,-2.0627 1.39538,-1.0363 2.02428,-1.2962 3.24673,-1.342 1.74565,-0.065 2.53013,0.2013 5.98142,2.0323 3.74697,1.9879 4.83728,2.4913 5.22686,2.4136 0.19406,-0.039 0.86877,0.2111 1.49927,0.555 0.63051,0.344 1.56158,0.6685 2.06907,0.7212 0.50748,0.053 1.33792,0.3047 1.84541,0.5599 0.50754,0.2552 1.38438,0.473 1.9486,0.4839 0.56424,0.011 1.462,0.3309 1.99503,0.7112 0.53305,0.3803 1.11829,0.6617 1.30054,0.6254 0.18223,-0.036 1.66104,0.7926 3.28623,1.8422 5.14555,3.3231 4.96302,3.2514 7.58556,2.9783 1.55997,-0.1626 2.76487,-0.071 3.47534,0.2628 0.59818,0.2814 1.28101,0.4731 1.5174,0.4259 0.23646,-0.047 1.05907,0.1709 1.82808,0.4846 3.77704,1.5408 5.29482,2.0701 5.70269,1.9887 0.24552,-0.049 1.1006,0.187 1.90021,0.5245 0.79963,0.3374 1.83755,0.5369 2.30639,0.4434 0.46893,-0.093 1.31266,0.063 1.875,0.3488 0.56237,0.2854 1.25483,0.4725 1.53877,0.4159 0.67561,-0.1348 3.59946,0.9532 5.58979,2.0801 1.12525,0.6371 1.70536,1.2461 2.02514,2.1259 0.24648,0.6782 0.80622,1.8936 1.24387,2.7008 0.43762,0.8072 1.01557,2.0484 1.28436,2.7581 0.38955,1.0289 1.10651,1.692 3.53567,3.2703 1.67587,1.0889 3.8144,2.2801 4.75227,2.6471 0.93793,0.367 2.51669,1.0657 3.50833,1.5527 0.99167,0.4869 2.4145,1.097 3.16185,1.3557 0.74732,0.2587 2.15429,0.7892 3.12654,1.179 0.9723,0.3898 3.14895,1.1099 4.83704,1.6002 1.68808,0.4904 3.50058,1.1094 4.02776,1.3757 0.5272,0.2663 1.21129,0.4344 1.5202,0.3735 0.30888,-0.061 1.59354,0.1702 2.8547,0.5134 1.26116,0.3433 2.46444,0.5905 2.67393,0.5495 0.20942,-0.041 0.7093,0.169 1.11066,0.4668 0.40137,0.2978 1.31372,0.5348 2.0274,0.5266 0.71368,-0.01 2.14263,0.2326 3.17545,0.5351 2.30754,0.6757 4.51128,0.1118 7.1456,-1.8286 0.95325,-0.7021 2.0128,-1.334 2.3546,-1.4041 0.34189,-0.07 1.14349,-0.5356 1.78149,-1.0343 1.38986,-1.0864 3.34674,-1.815 6.88771,-2.5643 2.95028,-0.6244 5.59555,-0.214 6.85096,1.0628 0.71482,0.727 1.94673,0.9405 7.06375,1.2244 6.38201,0.3541 6.67906,0.3384 8.2441,-0.4335 0.81063,-0.3999 1.92499,-0.8171 2.47636,-0.9271 1.80951,-0.361 5.31445,0.9755 8.64108,3.295 2.99272,2.0866 3.24329,2.3612 5.0268,5.5093 1.31337,2.3183 2.14631,3.4218 2.77374,3.6746 1.00277,0.4042 1.58696,1.2071 2.92079,4.0143 0.77298,1.6269 1.28618,2.1626 3.34273,3.4895 2.19722,1.4177 3.05207,1.8149 5.9835,2.7803 2.45052,0.807 7.07021,-0.4789 9.15376,-2.5481 1.10336,-1.0958 1.62141,-1.3752 2.56972,-1.3861 1.38014,-0.016 3.61924,1.4124 4.21855,2.6908 0.22806,0.4865 0.76738,1.0954 1.19845,1.353 0.43108,0.2576 0.82465,0.6733 0.87462,0.9237 0.17357,0.87 1.67113,0.9851 3.89583,0.2993 1.99218,-0.614 2.18219,-0.6108 2.71576,0.047 0.73984,0.9118 1.23825,1.1043 2.31819,0.8957 0.55219,-0.1065 1.63449,0.2902 2.91882,1.0702 l 2.04126,1.2398 4.45391,-0.6182 c 4.12798,-0.573 4.56102,-0.5659 5.91691,0.097 0.80462,0.3934 1.44049,0.9082 1.41298,1.144 -0.0275,0.2358 -0.57979,0.8254 -1.22727,1.3102 -1.57778,1.1813 -1.24997,2.0879 0.67434,1.8651 1.23338,-0.1428 1.4819,-0.3304 2.21948,-1.6757 0.54286,-0.9903 1.33155,-1.7806 2.27712,-2.2819 3.35672,-1.7794 5.94625,-1.2505 9.08955,1.8564 1.17017,1.1566 2.76742,2.4632 3.54939,2.9035 0.78194,0.4404 2.61461,1.4572 4.07247,2.2597 2.78125,1.5308 3.58625,2.464 4.02565,4.6665 0.1961,0.983 0.0585,1.6842 -0.52428,2.671 l -0.79026,1.3379 -6.01906,1.216 c -3.31044,0.6689 -6.2148,1.2888 -6.45399,1.3779 -0.23928,0.089 -1.03554,0.9892 -1.76951,2.0003 -1.46594,2.0191 -3.8435,4.2546 -4.70888,4.4272 -0.30387,0.061 -0.93813,-0.2194 -1.40942,-0.6224 -0.47126,-0.4029 -1.11863,-0.6804 -1.43846,-0.6166 -0.72287,0.1442 -2.3922,2.7615 -2.90542,4.5553 -0.21113,0.7378 -0.78541,1.9096 -1.27621,2.6038 l -0.89243,1.2624 -1.69167,-1.289 c -1.64274,-1.2517 -1.69781,-1.3477 -1.90683,-3.3241 l -0.21516,-2.0353 -1.03742,0.207 c -0.57059,0.1138 -1.01052,0.3421 -0.97754,0.5074 0.10384,0.5204 -2.70052,4.5412 -3.74095,5.3637 -0.54749,0.4328 -1.52748,1.5117 -2.17773,2.3976 -1.84031,2.5071 -3.24382,2.8895 -8.17214,2.2261 -2.11142,-0.2842 -2.80528,-0.5573 -3.69379,-1.4539 -1.06723,-1.0771 -2.48717,-1.2913 -2.81034,-0.4241 -0.0747,0.2007 -0.69005,0.3848 -1.36737,0.4092 -1.12569,0.041 -1.23513,0.1343 -1.27409,1.0912 -0.0234,0.5757 -0.23288,1.4913 -0.46552,2.0347 -0.23257,0.5434 -0.49546,1.6071 -0.58419,2.364 -0.22297,1.9017 -2.53086,4.5813 -4.80028,5.5734 -0.95326,0.4167 -3.19384,1.1808 -4.97912,1.6979 -1.78525,0.5172 -3.46193,1.0803 -3.72601,1.2514 -0.264,0.1712 -1.3696,0.1893 -2.45683,0.04 z"
       style="fill:#009ee0;fill-opacity:1;stroke:#ffffff;stroke-width:0.78673851;stroke-linecap:square;stroke-linejoin:miter;stroke-miterlimit:4;stroke-dasharray:none"
       inkscape:export-filename="/home/kr0l/pixelflutffbsee.png"
       inkscape:export-xdpi="7.1930156"
       inkscape:export-ydpi="7.1930156" />
    <path
       style="color:#000000;font-style:normal;font-variant:normal;font-weight:normal;font-stretch:normal;font-size:medium;line-height:normal;font-family:sans-serif;text-indent:0;text-align:start;text-decoration:none;text-decoration-line:none;text-decoration-style:solid;text-decoration-color:#000000;letter-spacing:normal;word-spacing:normal;text-transform:none;direction:ltr;block-progression:tb;writing-mode:lr-tb;baseline-shift:baseline;text-anchor:start;white-space:normal;clip-rule:nonzero;display:inline;overflow:visible;visibility:visible;opacity:1;isolation:auto;mix-blend-mode:normal;color-interpolation:sRGB;color-interpolation-filters:linearRGB;solid-color:#000000;solid-opacity:1;fill:#de2c68;fill-opacity:1;fill-rule:nonzero;stroke:#ffffff;stroke-width:0.97860134;stroke-linecap:butt;stroke-linejoin:miter;stroke-miterlimit:4;stroke-dasharray:none;stroke-dashoffset:0;stroke-opacity:1;color-rendering:auto;image-rendering:auto;shape-rendering:auto;text-rendering:auto;enable-background:accumulate"
       d="m -478.12766,1037.8992 c -18.36929,0 -35.98814,7.3744 -48.95972,20.4731 -12.97158,13.0987 -20.24902,30.852 -20.24902,49.352 0,18.5 7.27744,36.253 20.24902,49.3518 12.97158,13.0987 30.59043,20.4731 48.95972,20.4731 18.3693,0 35.98815,-7.3744 48.95973,-20.4731 12.97157,-13.0988 20.24901,-30.852 20.24901,-49.3521 0,-18.5 -7.27744,-36.253 -20.24901,-49.3517 -12.97158,-13.0987 -30.59043,-20.4731 -48.95973,-20.4731 z m 0,12.6628 c 14.98288,0 29.35034,6.0047 39.96231,16.7207 10.61195,10.716 16.58363,25.2626 16.58363,40.4416 0,15.179 -5.97168,29.7254 -16.58363,40.4413 -10.61197,10.716 -24.97943,16.7208 -39.96231,16.7208 -14.98287,0 -29.35005,-6.0048 -39.96202,-16.7208 -10.61197,-10.7159 -16.58365,-25.2623 -16.58365,-40.4413 0,-15.179 5.97168,-29.7256 16.58365,-40.4416 10.61197,-10.716 24.97915,-16.7207 39.96202,-16.7207 z"
       id="ellipse5485"
       inkscape:connector-curvature="0" />
    <g
       id="g4252"
       transform="matrix(0.14095467,0,0,0.14095467,-588.9395,1082.0865)"
       inkscape:export-filename="/home/kr0l/pixelflutffbsee.png"
       inkscape:export-xdpi="7.1930156"
       inkscape:export-ydpi="7.1930156">
      <polygon
         inkscape:transform-center-y="6.0807202"
         inkscape:transform-center-x="-735.76717"
         id="polygon5366"
         transform="matrix(-7.2633158,0,0,7.5170891,706.74163,-127.7118)"
         points="88,53 88,47 75,47 81,41 73,41 64,50 73,59 81,59 75,53 "
         style="fill:#ffcc33;fill-opacity:1" />
      <polygon
         style="fill:#ffcc33;fill-opacity:1"
         points="64,50 73,59 81,59 75,53 88,53 88,47 75,47 81,41 73,41 "
         transform="matrix(14.898881,0,0,15.419433,-240.62554,-520.72469)"
         id="polygon5867"
         inkscape:transform-center-x="1509.2428"
         inkscape:transform-center-y="12.473066" />
    </g>
    <path
       d="m -680.58764,1232.141 q 0.60652,0.8778 1.31411,1.2393 0.72204,0.3615 1.51628,0.3615 0.82312,0 1.47295,-0.3443 0.66427,-0.3615 1.12638,-1.1016 0.4621,-0.7574 0.70759,-1.9107 0.2455,-1.1705 0.2455,-2.7885 0,-2.909 -0.80868,-4.1999 -0.80869,-1.3082 -2.32496,-1.3082 -1.02529,0 -1.79065,0.568 -0.76536,0.5508 -1.45852,1.5664 l 0,7.918 z m 0,-10.913 q 0.89533,-1.1189 1.97838,-1.773 1.0975,-0.6713 2.49825,-0.6713 1.28522,0 2.31052,0.6025 1.03973,0.6024 1.76177,1.7385 0.73647,1.1188 1.12637,2.7196 0.3899,1.6008 0.3899,3.5975 0,2.1516 -0.44766,3.9074 -0.44766,1.7557 -1.28522,3.0122 -0.82313,1.2394 -1.99283,1.9279 -1.16969,0.6885 -2.59933,0.6885 -0.69315,0 -1.25634,-0.1721 -0.56319,-0.1549 -1.03973,-0.4476 -0.47655,-0.2926 -0.88089,-0.7057 -0.3899,-0.4303 -0.75092,-0.9467 l -0.15884,1.1877 q -0.0866,0.4475 -0.30326,0.6369 -0.20217,0.1893 -0.56319,0.1893 l -2.35384,0 0,-25.5784 3.56686,0 0,10.0868 z"
       style="font-style:normal;font-variant:normal;font-weight:bold;font-stretch:normal;font-size:200px;line-height:100%;font-family:Lato;-inkscape-font-specification:'Lato Bold';letter-spacing:0px;word-spacing:0px;fill:#009ee0;fill-opacity:1;stroke:none;stroke-width:1px;stroke-linecap:butt;stroke-linejoin:miter;stroke-opacity:1"
       id="path3419"
       inkscape:connector-curvature="0"
       inkscape:export-filename="/home/kr0l/pixelflutffbsee.png"
       inkscape:export-xdpi="7.1930156"
       inkscape:export-ydpi="7.1930156" />
    <path
       d="m -661.18336,1218.7837 q 1.64625,0 2.98923,0.6369 1.35743,0.6369 2.31052,1.8074 0.96753,1.1704 1.48739,2.8573 0.51987,1.6869 0.51987,3.7696 0,2.1 -0.51987,3.7869 -0.51986,1.6868 -1.48739,2.8745 -0.95309,1.1877 -2.31052,1.8246 -1.34298,0.6369 -2.98923,0.6369 -1.66068,0 -3.01811,-0.6369 -1.35743,-0.6369 -2.32496,-1.8246 -0.95308,-1.1877 -1.48739,-2.8745 -0.51987,-1.6869 -0.51987,-3.7869 0,-2.0827 0.51987,-3.7696 0.53431,-1.6869 1.48739,-2.8573 0.96753,-1.1705 2.32496,-1.8074 1.35743,-0.6369 3.01811,-0.6369 z m 0,14.9236 q 1.84842,0 2.7293,-1.4803 0.89533,-1.4803 0.89533,-4.3376 0,-2.8574 -0.89533,-4.3549 -0.88088,-1.4975 -2.7293,-1.4975 -1.87729,0 -2.78706,1.5147 -0.89532,1.4975 -0.89532,4.3377 0,2.8401 0.89532,4.3376 0.90977,1.4803 2.78706,1.4803 z"
       style="font-style:normal;font-variant:normal;font-weight:bold;font-stretch:normal;font-size:200px;line-height:100%;font-family:Lato;-inkscape-font-specification:'Lato Bold';letter-spacing:0px;word-spacing:0px;fill:#009ee0;fill-opacity:1;stroke:none;stroke-width:1px;stroke-linecap:butt;stroke-linejoin:miter;stroke-opacity:1"
       id="path3421"
       inkscape:connector-curvature="0"
       inkscape:export-filename="/home/kr0l/pixelflutffbsee.png"
       inkscape:export-xdpi="7.1930156"
       inkscape:export-ydpi="7.1930156" />
    <path
       d="m -641.85535,1223.5689 q -0.60651,-0.8779 -1.32854,-1.2393 -0.7076,-0.3615 -1.53072,-0.3615 -0.80868,0 -1.45851,0.3615 -0.64984,0.3614 -1.11194,1.1016 -0.4621,0.723 -0.7076,1.859 -0.24549,1.1189 -0.24549,2.6508 0,1.5492 0.20217,2.6336 0.21661,1.0672 0.60651,1.7557 0.3899,0.6713 0.95309,0.9811 0.56319,0.2926 1.25634,0.2926 1.11194,0 1.89174,-0.5507 0.7798,-0.5509 1.47295,-1.5664 l 0,-7.918 z m 3.56686,-12.4277 0,25.5784 -2.18055,0 q -0.70759,0 -0.89532,-0.7746 l -0.30326,-1.7041 q -0.89532,1.2222 -2.06502,1.9795 -1.15526,0.7574 -2.70042,0.7574 -1.21302,0 -2.22387,-0.6025 -1.01085,-0.6024 -1.74733,-1.7385 -0.72203,-1.1532 -1.12637,-2.8401 -0.3899,-1.6869 -0.3899,-3.8557 0,-1.9623 0.44766,-3.6492 0.44766,-1.6868 1.28522,-2.9261 0.83757,-1.2394 2.00727,-1.9279 1.16969,-0.7057 2.62821,-0.7057 1.2419,0 2.12279,0.4647 0.88088,0.4648 1.57403,1.2566 l 0,-9.3122 3.56686,0 z"
       style="font-style:normal;font-variant:normal;font-weight:bold;font-stretch:normal;font-size:200px;line-height:100%;font-family:Lato;-inkscape-font-specification:'Lato Bold';letter-spacing:0px;word-spacing:0px;fill:#009ee0;fill-opacity:1;stroke:none;stroke-width:1px;stroke-linecap:butt;stroke-linejoin:miter;stroke-opacity:1"
       id="path3423"
       inkscape:connector-curvature="0"
       inkscape:export-filename="/home/kr0l/pixelflutffbsee.png"
       inkscape:export-xdpi="7.1930156"
       inkscape:export-ydpi="7.1930156" />
    <path
       d="m -625.19481,1225.8582 q 0,-0.8262 -0.20217,-1.5491 -0.18773,-0.7402 -0.57763,-1.291 -0.3899,-0.5508 -0.99641,-0.8606 -0.59207,-0.3271 -1.38631,-0.3271 -1.54515,0 -2.44048,1.05 -0.88089,1.05 -1.12638,2.9778 l 6.72938,0 z m -6.80158,2.5648 q 0.0866,1.3598 0.40434,2.3581 0.3177,0.9812 0.83756,1.6352 0.51987,0.637 1.22746,0.964 0.72204,0.3098 1.58848,0.3098 0.86645,0 1.4874,-0.241 0.63539,-0.241 1.09749,-0.5336 0.47655,-0.2926 0.82313,-0.5336 0.36101,-0.2409 0.69315,-0.2409 0.44766,0 0.66427,0.3959 l 1.0253,1.5491 q -0.59207,0.8262 -1.32855,1.3943 -0.73648,0.5508 -1.54516,0.895 -0.79424,0.3271 -1.6318,0.4648 -0.82312,0.1377 -1.60292,0.1377 -1.54516,0 -2.87371,-0.6025 -1.32854,-0.6196 -2.31051,-1.8073 -0.98197,-1.2049 -1.54516,-2.9606 -0.56319,-1.773 -0.56319,-4.0967 0,-1.8074 0.49098,-3.391 0.49099,-1.6008 1.40076,-2.7713 0.9242,-1.1877 2.23831,-1.8762 1.32854,-0.6885 2.98923,-0.6885 1.40075,0 2.58489,0.5336 1.18414,0.5336 2.03614,1.5664 0.852,1.0156 1.32855,2.5131 0.49098,1.4803 0.49098,3.3909 0,0.964 -0.17328,1.3082 -0.17329,0.3271 -0.66428,0.3271 l -9.16986,0 z"
       style="font-style:normal;font-variant:normal;font-weight:bold;font-stretch:normal;font-size:200px;line-height:100%;font-family:Lato;-inkscape-font-specification:'Lato Bold';letter-spacing:0px;word-spacing:0px;fill:#009ee0;fill-opacity:1;stroke:none;stroke-width:1px;stroke-linecap:butt;stroke-linejoin:miter;stroke-opacity:1"
       id="path3425"
       inkscape:connector-curvature="0"
       inkscape:export-filename="/home/kr0l/pixelflutffbsee.png"
       inkscape:export-xdpi="7.1930156"
       inkscape:export-ydpi="7.1930156" />
    <path
       d="m -616.00464,1221.228 q 0.44767,-0.5336 0.93865,-0.9812 0.50543,-0.4647 1.05417,-0.7746 0.56319,-0.327 1.19858,-0.4991 0.6354,-0.1894 1.38631,-0.1894 1.21302,0 2.15167,0.4992 0.93865,0.482 1.5596,1.377 0.63539,0.8779 0.95309,2.1172 0.33214,1.2221 0.33214,2.7024 l 0,11.2401 -3.56686,0 0,-11.2401 q 0,-1.618 -0.62096,-2.4958 -0.62095,-0.8951 -1.89173,-0.8951 -0.92421,0 -1.73289,0.4992 -0.80868,0.4991 -1.53072,1.3598 l 0,12.772 -3.56685,0 0,-17.6605 2.18055,0 q 0.69315,0 0.90976,0.7746 l 0.24549,1.3943 z"
       style="font-style:normal;font-variant:normal;font-weight:bold;font-stretch:normal;font-size:200px;line-height:100%;font-family:Lato;-inkscape-font-specification:'Lato Bold';letter-spacing:0px;word-spacing:0px;fill:#009ee0;fill-opacity:1;stroke:none;stroke-width:1px;stroke-linecap:butt;stroke-linejoin:miter;stroke-opacity:1"
       id="path3427"
       inkscape:connector-curvature="0"
       inkscape:export-filename="/home/kr0l/pixelflutffbsee.png"
       inkscape:export-xdpi="7.1930156"
       inkscape:export-ydpi="7.1930156" />
    <path
       d="m -593.99832,1222.5017 q -0.14441,0.2754 -0.30326,0.3959 -0.15885,0.1033 -0.40434,0.1033 -0.25993,0 -0.56319,-0.1721 -0.28881,-0.1722 -0.67871,-0.3787 -0.3899,-0.2238 -0.89533,-0.3959 -0.49098,-0.1722 -1.16969,-0.1722 -1.05418,0 -1.66069,0.5337 -0.59207,0.5336 -0.59207,1.3942 0,0.568 0.30326,0.9639 0.31769,0.3787 0.82312,0.6713 0.51986,0.2926 1.1697,0.5336 0.64983,0.2238 1.3141,0.4992 0.67872,0.2754 1.32855,0.6369 0.64983,0.3442 1.15526,0.895 0.51987,0.5337 0.82312,1.291 0.3177,0.7574 0.3177,1.8246 0,1.2737 -0.3899,2.3582 -0.37546,1.0672 -1.12638,1.859 -0.75092,0.7745 -1.86285,1.2221 -1.0975,0.4303 -2.54157,0.4303 -0.76536,0 -1.50184,-0.1721 -0.72203,-0.1549 -1.40075,-0.4476 -0.66427,-0.2926 -1.2419,-0.6885 -0.56319,-0.3959 -0.99641,-0.8606 l 0.82312,-1.6181 q 0.15885,-0.2926 0.37546,-0.4475 0.21661,-0.1549 0.54875,-0.1549 0.33213,0 0.62095,0.2238 0.30325,0.2238 0.69315,0.4819 0.3899,0.2582 0.90977,0.482 0.53431,0.2238 1.34299,0.2238 0.63539,0 1.08305,-0.1722 0.4621,-0.1893 0.75092,-0.4819 0.30325,-0.2926 0.43322,-0.6713 0.14441,-0.3959 0.14441,-0.809 0,-0.6197 -0.3177,-1.0156 -0.30325,-0.3959 -0.82312,-0.6885 -0.50542,-0.2926 -1.1697,-0.5164 -0.64983,-0.241 -1.34299,-0.5164 -0.67871,-0.2754 -1.34298,-0.6369 -0.64984,-0.3786 -1.1697,-0.9467 -0.50543,-0.568 -0.82312,-1.3942 -0.30326,-0.8263 -0.30326,-1.9967 0,-1.0845 0.36102,-2.0656 0.36102,-0.9811 1.05417,-1.7041 0.7076,-0.7401 1.74733,-1.1704 1.05417,-0.4476 2.42604,-0.4476 1.53072,0 2.78706,0.6025 1.25635,0.6024 2.09391,1.5836 l -0.80868,1.5319 z"
       style="font-style:normal;font-variant:normal;font-weight:bold;font-stretch:normal;font-size:200px;line-height:100%;font-family:Lato;-inkscape-font-specification:'Lato Bold';letter-spacing:0px;word-spacing:0px;fill:#009ee0;fill-opacity:1;stroke:none;stroke-width:1px;stroke-linecap:butt;stroke-linejoin:miter;stroke-opacity:1"
       id="path3429"
       inkscape:connector-curvature="0"
       inkscape:export-filename="/home/kr0l/pixelflutffbsee.png"
       inkscape:export-xdpi="7.1930156"
       inkscape:export-ydpi="7.1930156" />
    <path
       d="m -580.80085,1225.8582 q 0,-0.8262 -0.20217,-1.5491 -0.18773,-0.7402 -0.57763,-1.291 -0.3899,-0.5508 -0.99641,-0.8606 -0.59207,-0.3271 -1.38631,-0.3271 -1.54516,0 -2.44048,1.05 -0.88089,1.05 -1.12638,2.9778 l 6.72938,0 z m -6.80158,2.5648 q 0.0866,1.3598 0.40434,2.3581 0.31769,0.9812 0.83756,1.6352 0.51987,0.637 1.22746,0.964 0.72204,0.3098 1.58848,0.3098 0.86645,0 1.4874,-0.241 0.63539,-0.241 1.09749,-0.5336 0.47655,-0.2926 0.82312,-0.5336 0.36102,-0.2409 0.69316,-0.2409 0.44766,0 0.66427,0.3959 l 1.02529,1.5491 q -0.59207,0.8262 -1.32854,1.3943 -0.73648,0.5508 -1.54516,0.895 -0.79424,0.3271 -1.6318,0.4648 -0.82313,0.1377 -1.60292,0.1377 -1.54516,0 -2.87371,-0.6025 -1.32855,-0.6196 -2.31052,-1.8073 -0.98197,-1.2049 -1.54515,-2.9606 -0.56319,-1.773 -0.56319,-4.0967 0,-1.8074 0.49098,-3.391 0.49099,-1.6008 1.40075,-2.7713 0.92421,-1.1877 2.23832,-1.8762 1.32854,-0.6885 2.98923,-0.6885 1.40075,0 2.58489,0.5336 1.18414,0.5336 2.03614,1.5664 0.852,1.0156 1.32855,2.5131 0.49098,1.4803 0.49098,3.3909 0,0.964 -0.17329,1.3082 -0.17329,0.3271 -0.66427,0.3271 l -9.16986,0 z"
       style="font-style:normal;font-variant:normal;font-weight:bold;font-stretch:normal;font-size:200px;line-height:100%;font-family:Lato;-inkscape-font-specification:'Lato Bold';letter-spacing:0px;word-spacing:0px;fill:#009ee0;fill-opacity:1;stroke:none;stroke-width:1px;stroke-linecap:butt;stroke-linejoin:miter;stroke-opacity:1"
       id="path3431"
       inkscape:connector-curvature="0"
       inkscape:export-filename="/home/kr0l/pixelflutffbsee.png"
       inkscape:export-xdpi="7.1930156"
       inkscape:export-ydpi="7.1930156" />
    <path
       d="m -565.40117,1225.8582 q 0,-0.8262 -0.20217,-1.5491 -0.18773,-0.7402 -0.57763,-1.291 -0.3899,-0.5508 -0.99641,-0.8606 -0.59207,-0.3271 -1.38631,-0.3271 -1.54516,0 -2.44048,1.05 -0.88088,1.05 -1.12638,2.9778 l 6.72938,0 z m -6.80158,2.5648 q 0.0866,1.3598 0.40434,2.3581 0.3177,0.9812 0.83756,1.6352 0.51987,0.637 1.22746,0.964 0.72204,0.3098 1.58848,0.3098 0.86645,0 1.4874,-0.241 0.63539,-0.241 1.09749,-0.5336 0.47655,-0.2926 0.82313,-0.5336 0.36101,-0.2409 0.69315,-0.2409 0.44766,0 0.66427,0.3959 l 1.0253,1.5491 q -0.59207,0.8262 -1.32855,1.3943 -0.73648,0.5508 -1.54516,0.895 -0.79424,0.3271 -1.6318,0.4648 -0.82312,0.1377 -1.60292,0.1377 -1.54516,0 -2.87371,-0.6025 -1.32854,-0.6196 -2.31051,-1.8073 -0.98197,-1.2049 -1.54516,-2.9606 -0.56319,-1.773 -0.56319,-4.0967 0,-1.8074 0.49098,-3.391 0.49099,-1.6008 1.40075,-2.7713 0.92421,-1.1877 2.23832,-1.8762 1.32855,-0.6885 2.98923,-0.6885 1.40075,0 2.58489,0.5336 1.18414,0.5336 2.03614,1.5664 0.852,1.0156 1.32855,2.5131 0.49098,1.4803 0.49098,3.3909 0,0.964 -0.17328,1.3082 -0.17329,0.3271 -0.66428,0.3271 l -9.16986,0 z"
       style="font-style:normal;font-variant:normal;font-weight:bold;font-stretch:normal;font-size:200px;line-height:100%;font-family:Lato;-inkscape-font-specification:'Lato Bold';letter-spacing:0px;word-spacing:0px;fill:#009ee0;fill-opacity:1;stroke:none;stroke-width:1px;stroke-linecap:butt;stroke-linejoin:miter;stroke-opacity:1"
       id="path3433"
       inkscape:connector-curvature="0"
       inkscape:export-filename="/home/kr0l/pixelflutffbsee.png"
       inkscape:export-xdpi="7.1930156"
       inkscape:export-ydpi="7.1930156" />
    <path
       d="m -560.06667,1234.3786 q 0,-0.5336 0.15885,-1.0155 0.17328,-0.482 0.4621,-0.8262 0.28881,-0.3443 0.69315,-0.5509 0.40435,-0.2065 0.86645,-0.2065 0.4621,0 0.852,0.2065 0.40434,0.2066 0.69316,0.5509 0.30325,0.3442 0.47654,0.8262 0.17329,0.4819 0.17329,1.0155 0,0.5508 -0.17329,1.0328 -0.17329,0.4648 -0.47654,0.809 -0.28882,0.3443 -0.69316,0.5336 -0.3899,0.2066 -0.852,0.2066 -0.4621,0 -0.86645,-0.2066 -0.40434,-0.1893 -0.69315,-0.5336 -0.28882,-0.3442 -0.4621,-0.809 -0.15885,-0.482 -0.15885,-1.0328 z"
       style="font-style:normal;font-variant:normal;font-weight:bold;font-stretch:normal;font-size:200px;line-height:100%;font-family:Lato;-inkscape-font-specification:'Lato Bold';text-align:start;letter-spacing:0px;word-spacing:0px;writing-mode:lr-tb;text-anchor:start;fill:#000000;fill-opacity:1;stroke:none;stroke-width:1px;stroke-linecap:butt;stroke-linejoin:miter;stroke-opacity:1"
       id="path3435"
       inkscape:connector-curvature="0"
       inkscape:export-filename="/home/kr0l/pixelflutffbsee.png"
       inkscape:export-xdpi="7.1930156"
       inkscape:export-ydpi="7.1930156" />
    <path
       d="m -551.62516,1236.7196 0,-14.4589 -1.28523,-0.2409 q -0.41878,-0.1033 -0.67871,-0.3443 -0.2455,-0.2582 -0.2455,-0.723 l 0,-1.7385 2.20944,0 0,-1.3081 q 0,-1.5148 0.37546,-2.7197 0.38989,-1.2049 1.09749,-2.0483 0.72204,-0.8435 1.74733,-1.291 1.02529,-0.4475 2.31051,-0.4475 1.02529,0 1.90618,0.327 l -0.0722,2.1344 q -0.0144,0.241 -0.11552,0.3959 -0.10109,0.1377 -0.27438,0.2238 -0.15885,0.069 -0.37546,0.1033 -0.21661,0.017 -0.4621,0.017 -0.63539,0 -1.14081,0.1721 -0.49099,0.1549 -0.83757,0.568 -0.34657,0.3959 -0.5343,1.0672 -0.17329,0.6541 -0.17329,1.6353 l 0,1.1704 3.85567,0 0,3.0295 -3.74014,0 0,14.4761 -3.56686,0 z"
       style="font-style:normal;font-variant:normal;font-weight:bold;font-stretch:normal;font-size:200px;line-height:100%;font-family:Lato;-inkscape-font-specification:'Lato Bold';letter-spacing:0px;word-spacing:0px;fill:#de2c68;fill-opacity:1;stroke:none;stroke-width:1px;stroke-linecap:butt;stroke-linejoin:miter;stroke-opacity:1"
       id="path3437"
       inkscape:connector-curvature="0"
       inkscape:export-filename="/home/kr0l/pixelflutffbsee.png"
       inkscape:export-xdpi="7.1930156"
       inkscape:export-ydpi="7.1930156" />
    <path
       d="m -538.92094,1222.123 q 0.69316,-1.5836 1.64625,-2.4786 0.95308,-0.9123 2.25275,-0.9123 1.02529,0 1.64624,0.5336 l -0.23105,3.1844 q -0.0722,0.3098 -0.21661,0.4475 -0.12997,0.1205 -0.36102,0.1205 -0.21661,0 -0.64983,-0.086 -0.41878,-0.086 -0.82312,-0.086 -0.59207,0 -1.05418,0.2065 -0.4621,0.2066 -0.83756,0.6025 -0.36102,0.3787 -0.64983,0.9295 -0.27437,0.5508 -0.51987,1.2565 l 0,10.8786 -3.56686,0 0,-17.6605 2.09391,0 q 0.54875,0 0.76536,0.241 0.21661,0.2238 0.28881,0.8262 l 0.21661,1.9967 z"
       style="font-style:normal;font-variant:normal;font-weight:bold;font-stretch:normal;font-size:200px;line-height:100%;font-family:Lato;-inkscape-font-specification:'Lato Bold';letter-spacing:0px;word-spacing:0px;fill:#de2c68;fill-opacity:1;stroke:none;stroke-width:1px;stroke-linecap:butt;stroke-linejoin:miter;stroke-opacity:1"
       id="path3439"
       inkscape:connector-curvature="0"
       inkscape:export-filename="/home/kr0l/pixelflutffbsee.png"
       inkscape:export-xdpi="7.1930156"
       inkscape:export-ydpi="7.1930156" />
    <path
       d="m -522.36103,1225.8582 q 0,-0.8262 -0.20217,-1.5491 -0.18773,-0.7402 -0.57763,-1.291 -0.3899,-0.5508 -0.99641,-0.8606 -0.59207,-0.3271 -1.38631,-0.3271 -1.54516,0 -2.44049,1.05 -0.88088,1.05 -1.12637,2.9778 l 6.72938,0 z m -6.80159,2.5648 q 0.0866,1.3598 0.40434,2.3581 0.3177,0.9812 0.83757,1.6352 0.51986,0.637 1.22746,0.964 0.72204,0.3098 1.58848,0.3098 0.86644,0 1.48739,-0.241 0.6354,-0.241 1.0975,-0.5336 0.47654,-0.2926 0.82312,-0.5336 0.36102,-0.2409 0.69316,-0.2409 0.44766,0 0.66427,0.3959 l 1.02529,1.5491 q -0.59207,0.8262 -1.32855,1.3943 -0.73647,0.5508 -1.54515,0.895 -0.79424,0.3271 -1.63181,0.4648 -0.82312,0.1377 -1.60292,0.1377 -1.54515,0 -2.8737,-0.6025 -1.32855,-0.6196 -2.31052,-1.8073 -0.98197,-1.2049 -1.54516,-2.9606 -0.56319,-1.773 -0.56319,-4.0967 0,-1.8074 0.49099,-3.391 0.49098,-1.6008 1.40075,-2.7713 0.92421,-1.1877 2.23831,-1.8762 1.32855,-0.6885 2.98923,-0.6885 1.40076,0 2.58489,0.5336 1.18414,0.5336 2.03615,1.5664 0.852,1.0156 1.32854,2.5131 0.49099,1.4803 0.49099,3.3909 0,0.964 -0.17329,1.3082 -0.17329,0.3271 -0.66427,0.3271 l -9.16987,0 z"
       style="font-style:normal;font-variant:normal;font-weight:bold;font-stretch:normal;font-size:200px;line-height:100%;font-family:Lato;-inkscape-font-specification:'Lato Bold';letter-spacing:0px;word-spacing:0px;fill:#de2c68;fill-opacity:1;stroke:none;stroke-width:1px;stroke-linecap:butt;stroke-linejoin:miter;stroke-opacity:1"
       id="path3441"
       inkscape:connector-curvature="0"
       inkscape:export-filename="/home/kr0l/pixelflutffbsee.png"
       inkscape:export-xdpi="7.1930156"
       inkscape:export-ydpi="7.1930156" />
    <path
       d="m -512.80983,1219.0591 0,17.6605 -3.58131,0 0,-17.6605 3.58131,0 z m 0.49098,-5.1466 q 0,0.5508 -0.18773,1.0327 -0.18773,0.482 -0.50542,0.8435 -0.30326,0.3614 -0.72204,0.5852 -0.41878,0.2066 -0.89533,0.2066 -0.4621,0 -0.88088,-0.2066 -0.40434,-0.2238 -0.7076,-0.5852 -0.30325,-0.3615 -0.49098,-0.8435 -0.17329,-0.4819 -0.17329,-1.0327 0,-0.5681 0.17329,-1.0672 0.18773,-0.4992 0.49098,-0.8607 0.30326,-0.3615 0.7076,-0.568 0.41878,-0.2238 0.88088,-0.2238 0.47655,0 0.89533,0.2238 0.41878,0.2065 0.72204,0.568 0.31769,0.3615 0.50542,0.8607 0.18773,0.4991 0.18773,1.0672 z"
       style="font-style:normal;font-variant:normal;font-weight:bold;font-stretch:normal;font-size:200px;line-height:100%;font-family:Lato;-inkscape-font-specification:'Lato Bold';letter-spacing:0px;word-spacing:0px;fill:#de2c68;fill-opacity:1;stroke:none;stroke-width:1px;stroke-linecap:butt;stroke-linejoin:miter;stroke-opacity:1"
       id="path3443"
       inkscape:connector-curvature="0"
       inkscape:export-filename="/home/kr0l/pixelflutffbsee.png"
       inkscape:export-xdpi="7.1930156"
       inkscape:export-ydpi="7.1930156" />
    <path
       d="m -508.13375,1236.7196 0,-14.4589 -1.28523,-0.2409 q -0.41878,-0.1033 -0.67871,-0.3443 -0.24549,-0.2582 -0.24549,-0.723 l 0,-1.7385 2.20943,0 0,-1.3081 q 0,-1.5148 0.37546,-2.7197 0.3899,-1.2049 1.09749,-2.0483 0.72204,-0.8435 1.74733,-1.291 1.02529,-0.4475 2.31051,-0.4475 1.0253,0 1.90618,0.327 l -0.0722,2.1344 q -0.0144,0.241 -0.11553,0.3959 -0.10108,0.1377 -0.27437,0.2238 -0.15885,0.069 -0.37546,0.1033 -0.21661,0.017 -0.4621,0.017 -0.6354,0 -1.14082,0.1721 -0.49099,0.1549 -0.83756,0.568 -0.34658,0.3959 -0.53431,1.0672 -0.17329,0.6541 -0.17329,1.6353 l 0,1.1704 3.85568,0 0,3.0295 -3.74015,0 0,14.4761 -3.56686,0 z"
       style="font-style:normal;font-variant:normal;font-weight:bold;font-stretch:normal;font-size:200px;line-height:100%;font-family:Lato;-inkscape-font-specification:'Lato Bold';letter-spacing:0px;word-spacing:0px;fill:#de2c68;fill-opacity:1;stroke:none;stroke-width:1px;stroke-linecap:butt;stroke-linejoin:miter;stroke-opacity:1"
       id="path3445"
       inkscape:connector-curvature="0"
       inkscape:export-filename="/home/kr0l/pixelflutffbsee.png"
       inkscape:export-xdpi="7.1930156"
       inkscape:export-ydpi="7.1930156" />
    <path
       d="m -486.02861,1219.0591 0,17.6605 -2.18055,0 q -0.70759,0 -0.89532,-0.7746 l -0.2455,-1.4115 q -0.90976,1.1017 -2.00726,1.7902 -1.09749,0.6713 -2.58489,0.6713 -1.21302,0 -2.15167,-0.482 -0.9242,-0.4991 -1.5596,-1.3942 -0.63539,-0.8951 -0.96752,-2.1172 -0.3177,-1.2393 -0.3177,-2.7196 l 0,-11.2229 3.56686,0 0,11.2229 q 0,1.618 0.62095,2.513 0.63539,0.8779 1.89174,0.8779 0.9242,0 1.73288,-0.482 0.80868,-0.4991 1.53072,-1.3598 l 0,-12.772 3.56686,0 z"
       style="font-style:normal;font-variant:normal;font-weight:bold;font-stretch:normal;font-size:200px;line-height:100%;font-family:Lato;-inkscape-font-specification:'Lato Bold';letter-spacing:0px;word-spacing:0px;fill:#de2c68;fill-opacity:1;stroke:none;stroke-width:1px;stroke-linecap:butt;stroke-linejoin:miter;stroke-opacity:1"
       id="path3447"
       inkscape:connector-curvature="0"
       inkscape:export-filename="/home/kr0l/pixelflutffbsee.png"
       inkscape:export-xdpi="7.1930156"
       inkscape:export-ydpi="7.1930156" />
    <path
       d="m -479.15618,1221.228 q 0.44766,-0.5336 0.93865,-0.9812 0.50542,-0.4647 1.05417,-0.7746 0.56319,-0.327 1.19858,-0.4991 0.63539,-0.1894 1.38631,-0.1894 1.21302,0 2.15167,0.4992 0.93865,0.482 1.5596,1.377 0.63539,0.8779 0.95309,2.1172 0.33213,1.2221 0.33213,2.7024 l 0,11.2401 -3.56686,0 0,-11.2401 q 0,-1.618 -0.62095,-2.4958 -0.62095,-0.8951 -1.89173,-0.8951 -0.92421,0 -1.73289,0.4992 -0.80868,0.4991 -1.53072,1.3598 l 0,12.772 -3.56686,0 0,-17.6605 2.18055,0 q 0.69316,0 0.90977,0.7746 l 0.24549,1.3943 z"
       style="font-style:normal;font-variant:normal;font-weight:bold;font-stretch:normal;font-size:200px;line-height:100%;font-family:Lato;-inkscape-font-specification:'Lato Bold';letter-spacing:0px;word-spacing:0px;fill:#de2c68;fill-opacity:1;stroke:none;stroke-width:1px;stroke-linecap:butt;stroke-linejoin:miter;stroke-opacity:1"
       id="path3449"
       inkscape:connector-curvature="0"
       inkscape:export-filename="/home/kr0l/pixelflutffbsee.png"
       inkscape:export-xdpi="7.1930156"
       inkscape:export-ydpi="7.1930156" />
    <path
       d="m -462.62289,1211.1412 0,14.6482 0.66427,0 q 0.36102,0 0.56319,-0.1033 0.21661,-0.1205 0.43322,-0.4647 l 3.68239,-5.4221 q 0.23105,-0.3615 0.50543,-0.5508 0.28881,-0.1894 0.73647,-0.1894 l 3.26361,0 -4.60659,6.5582 q -0.49099,0.7745 -1.06862,1.1877 0.30326,0.2581 0.53431,0.6024 0.24549,0.3443 0.4621,0.7402 l 4.93873,8.572 -3.22028,0 q -0.41878,0 -0.72204,-0.1549 -0.30325,-0.1722 -0.50543,-0.6025 l -3.78346,-6.6958 q -0.20218,-0.3959 -0.41878,-0.5164 -0.21662,-0.1205 -0.64984,-0.1205 l -0.80868,0 0,8.0901 -3.56686,0 0,-25.5784 3.56686,0 z"
       style="font-style:normal;font-variant:normal;font-weight:bold;font-stretch:normal;font-size:200px;line-height:100%;font-family:Lato;-inkscape-font-specification:'Lato Bold';letter-spacing:0px;word-spacing:0px;fill:#de2c68;fill-opacity:1;stroke:none;stroke-width:1px;stroke-linecap:butt;stroke-linejoin:miter;stroke-opacity:1"
       id="path3451"
       inkscape:connector-curvature="0"
       inkscape:export-filename="/home/kr0l/pixelflutffbsee.png"
       inkscape:export-xdpi="7.1930156"
       inkscape:export-ydpi="7.1930156" />
    <path
       d="m -451.25353,1234.3786 q 0,-0.5336 0.15885,-1.0155 0.17329,-0.482 0.4621,-0.8262 0.28882,-0.3443 0.69315,-0.5509 0.40435,-0.2065 0.86645,-0.2065 0.4621,0 0.852,0.2065 0.40435,0.2066 0.69315,0.5509 0.30327,0.3442 0.47655,0.8262 0.1733,0.4819 0.1733,1.0155 0,0.5508 -0.1733,1.0328 -0.17328,0.4648 -0.47655,0.809 -0.2888,0.3443 -0.69315,0.5336 -0.3899,0.2066 -0.852,0.2066 -0.4621,0 -0.86645,-0.2066 -0.40433,-0.1893 -0.69315,-0.5336 -0.28881,-0.3442 -0.4621,-0.809 -0.15885,-0.482 -0.15885,-1.0328 z"
       style="font-style:normal;font-variant:normal;font-weight:bold;font-stretch:normal;font-size:200px;line-height:100%;font-family:Lato;-inkscape-font-specification:'Lato Bold';text-align:start;letter-spacing:0px;word-spacing:0px;writing-mode:lr-tb;text-anchor:start;fill:#000000;fill-opacity:1;stroke:none;stroke-width:1px;stroke-linecap:butt;stroke-linejoin:miter;stroke-opacity:1"
       id="path3453"
       inkscape:connector-curvature="0"
       inkscape:export-filename="/home/kr0l/pixelflutffbsee.png"
       inkscape:export-xdpi="7.1930156"
       inkscape:export-ydpi="7.1930156" />
    <path
       d="m -440.51594,1221.228 q 0.44766,-0.5336 0.93865,-0.9812 0.50542,-0.4647 1.05417,-0.7746 0.5632,-0.327 1.19858,-0.4991 0.63539,-0.1894 1.38632,-0.1894 1.21301,0 2.15166,0.4992 0.93865,0.482 1.5596,1.377 0.6354,0.8779 0.9531,2.1172 0.33212,1.2221 0.33212,2.7024 l 0,11.2401 -3.56685,0 0,-11.2401 q 0,-1.618 -0.62097,-2.4958 -0.62094,-0.8951 -1.89171,-0.8951 -0.92422,0 -1.73291,0.4992 -0.80867,0.4991 -1.53071,1.3598 l 0,12.772 -3.56686,0 0,-17.6605 2.18055,0 q 0.69315,0 0.90977,0.7746 l 0.24549,1.3943 z"
       style="font-style:normal;font-variant:normal;font-weight:bold;font-stretch:normal;font-size:200px;line-height:100%;font-family:Lato;-inkscape-font-specification:'Lato Bold';text-align:start;letter-spacing:0px;word-spacing:0px;writing-mode:lr-tb;text-anchor:start;fill:#000000;fill-opacity:1;stroke:none;stroke-width:1px;stroke-linecap:butt;stroke-linejoin:miter;stroke-opacity:1"
       id="path3455"
       inkscape:connector-curvature="0"
       inkscape:export-filename="/home/kr0l/pixelflutffbsee.png"
       inkscape:export-xdpi="7.1930156"
       inkscape:export-ydpi="7.1930156" />
    <path
       d="m -418.0042,1225.8582 q 0,-0.8262 -0.20216,-1.5491 -0.18775,-0.7402 -0.57764,-1.291 -0.3899,-0.5508 -0.99641,-0.8606 -0.59206,-0.3271 -1.38632,-0.3271 -1.54516,0 -2.44047,1.05 -0.88089,1.05 -1.12638,2.9778 l 6.72938,0 z m -6.80158,2.5648 q 0.0866,1.3598 0.40434,2.3581 0.31768,0.9812 0.83755,1.6352 0.51988,0.637 1.22746,0.964 0.72204,0.3098 1.5885,0.3098 0.86642,0 1.48738,-0.241 0.63539,-0.241 1.0975,-0.5336 0.47655,-0.2926 0.82311,-0.5336 0.36104,-0.2409 0.69316,-0.2409 0.44767,0 0.66429,0.3959 l 1.02528,1.5491 q -0.59206,0.8262 -1.32855,1.3943 -0.73648,0.5508 -1.54514,0.895 -0.79426,0.3271 -1.63181,0.4648 -0.82312,0.1377 -1.60292,0.1377 -1.54516,0 -2.87372,-0.6025 -1.32853,-0.6196 -2.31052,-1.8073 -0.98196,-1.2049 -1.54514,-2.9606 -0.56319,-1.773 -0.56319,-4.0967 0,-1.8074 0.49097,-3.391 0.491,-1.6008 1.40076,-2.7713 0.92421,-1.1877 2.23832,-1.8762 1.32854,-0.6885 2.98922,-0.6885 1.40076,0 2.5849,0.5336 1.18413,0.5336 2.03614,1.5664 0.852,1.0156 1.32856,2.5131 0.49096,1.4803 0.49096,3.3909 0,0.964 -0.17328,1.3082 -0.17328,0.3271 -0.66427,0.3271 l -9.16986,0 z"
       style="font-style:normal;font-variant:normal;font-weight:bold;font-stretch:normal;font-size:200px;line-height:100%;font-family:Lato;-inkscape-font-specification:'Lato Bold';text-align:start;letter-spacing:0px;word-spacing:0px;writing-mode:lr-tb;text-anchor:start;fill:#000000;fill-opacity:1;stroke:none;stroke-width:1px;stroke-linecap:butt;stroke-linejoin:miter;stroke-opacity:1"
       id="path3457"
       inkscape:connector-curvature="0"
       inkscape:export-filename="/home/kr0l/pixelflutffbsee.png"
       inkscape:export-xdpi="7.1930156"
       inkscape:export-ydpi="7.1930156" />
    <path
       d="m -407.38035,1236.995 q -1.93505,0 -2.97479,-1.291 -1.02529,-1.3082 -1.02529,-3.5975 l 0,-9.863 -1.51627,0 q -0.28882,0 -0.491,-0.2237 -0.20216,-0.2238 -0.20216,-0.6714 l 0,-1.6868 2.38272,-0.4648 0.75092,-4.8196 q 0.0722,-0.3442 0.27438,-0.5336 0.20216,-0.1893 0.51986,-0.1893 l 1.84841,0 0,5.5597 3.95676,0 0,3.0295 -3.95676,0 0,9.5704 q 0,0.8262 0.33213,1.291 0.34658,0.4647 0.93866,0.4647 0.33213,0 0.54874,-0.086 0.23105,-0.1033 0.38991,-0.2066 0.17329,-0.1033 0.30325,-0.1893 0.12997,-0.1033 0.25994,-0.1033 0.15884,0 0.25992,0.1033 0.10108,0.086 0.2166,0.2754 l 1.06864,2.0655 q -0.77981,0.7746 -1.79065,1.1705 -1.01086,0.3959 -2.09392,0.3959 z"
       style="font-style:normal;font-variant:normal;font-weight:bold;font-stretch:normal;font-size:200px;line-height:100%;font-family:Lato;-inkscape-font-specification:'Lato Bold';text-align:start;letter-spacing:0px;word-spacing:0px;writing-mode:lr-tb;text-anchor:start;fill:#000000;fill-opacity:1;stroke:none;stroke-width:1px;stroke-linecap:butt;stroke-linejoin:miter;stroke-opacity:1"
       id="path3459"
       inkscape:connector-curvature="0"
       inkscape:export-filename="/home/kr0l/pixelflutffbsee.png"
       inkscape:export-xdpi="7.1930156"
       inkscape:export-ydpi="7.1930156" />
  </g>
</svg>
