<?xml version="1.0" encoding="UTF-8" standalone="no"?>
<!-- Created with Inkscape (http://www.inkscape.org/) -->

<svg
   xmlns:dc="http://purl.org/dc/elements/1.1/"
   xmlns:cc="http://creativecommons.org/ns#"
   xmlns:rdf="http://www.w3.org/1999/02/22-rdf-syntax-ns#"
   xmlns:svg="http://www.w3.org/2000/svg"
   xmlns="http://www.w3.org/2000/svg"
   xmlns:sodipodi="http://sodipodi.sourceforge.net/DTD/sodipodi-0.dtd"
   xmlns:inkscape="http://www.inkscape.org/namespaces/inkscape"
   version="1.1"
   id="svg2"
   xml:space="preserve"
   width="294.11334"
   height="125.29639"
   viewBox="0 0 294.11333 125.29639"
   sodipodi:docname="toolbox.svg"
   inkscape:version="0.92.2 2405546, 2018-03-11"><metadata
     id="metadata8"><rdf:RDF><cc:Work
         rdf:about=""><dc:format>image/svg+xml</dc:format><dc:type
           rdf:resource="http://purl.org/dc/dcmitype/StillImage" /><dc:title></dc:title></cc:Work></rdf:RDF></metadata><defs
     id="defs6"><linearGradient
       x1="0"
       y1="0"
       x2="1"
       y2="0"
       gradientUnits="userSpaceOnUse"
       gradientTransform="matrix(0,-35.2314,-35.2314,0,25.6071,38.2933)"
       spreadMethod="pad"
       id="linearGradient30"><stop
         style="stop-opacity:1;stop-color:#f14531"
         offset="0"
         id="stop24" /><stop
         style="stop-opacity:1;stop-color:#d23128"
         offset="0.330076"
         id="stop26" /><stop
         style="stop-opacity:1;stop-color:#98131a"
         offset="1"
         id="stop28" /></linearGradient></defs><sodipodi:namedview
     pagecolor="#ffffff"
     bordercolor="#666666"
     borderopacity="1"
     objecttolerance="10"
     gridtolerance="10"
     guidetolerance="10"
     inkscape:pageopacity="0"
     inkscape:pageshadow="2"
     inkscape:window-width="1916"
     inkscape:window-height="1024"
     id="namedview4"
     showgrid="false"
     fit-margin-left="23"
     fit-margin-top="23"
     fit-margin-right="23"
     fit-margin-bottom="23"
     inkscape:zoom="0.7482153"
     inkscape:cx="593.11941"
     inkscape:cy="-21.394512"
     inkscape:window-x="0"
     inkscape:window-y="26"
     inkscape:window-maximized="0"
     inkscape:current-layer="g10" /><g
     id="g10"
     inkscape:groupmode="layer"
     inkscape:label="ink_ext_XXXXXX"
     transform="matrix(1.3333333,0,0,-1.3333333,23,102.2964)"><path
       inkscape:connector-curvature="0"
       id="path14"
       style="fill:#f14531;fill-opacity:1;fill-rule:nonzero;stroke:none;stroke-width:0.1"
       d="M 45.9105,23.6719 V 17.8406 L 28.2031,7.69219 28.1613,31.4313 l 6.3262,3.6585 -5.3062,3.0614 -15.8579,-9.1742 5.3039,-3.0598 4.2305,2.4469 V 7.72344 L 5.30352,17.8406 V 41.6387 L 25.6121,53.3543 45.9105,41.6445 V 35.8906 L 35.2434,29.7371 v -6.1226 l 5.3832,3.1054 5.2839,-3.048 M 51.2141,44.7078 25.6203,59.4723 0.00820313,44.7066 0,14.7523 H 0.0433594 L 25.5887,0.0160156 25.5977,0 25.607,0.00546875 25.616,0 25.625,0.0160156 51.2141,14.7773 l -0.025,0.043 h 0.025 v 11.9113 l -0.0016,8e-4 0.0016,0.0028 -5.2805,3.0464 5.2805,3.0461 -0.0493,0.0852 h 0.0493 v 11.7949" /><path
       inkscape:connector-curvature="0"
       id="path32"
       style="fill:url(#linearGradient30);fill-opacity:1;fill-rule:nonzero;stroke:none;stroke-width:0.1"
       d="M 25.616,0 25.607,0.00546875 25.5977,0 25.5887,0.0160156 0.0433594,14.7523 H 0 L 0.00820313,44.7066 25.6203,59.4723 51.2141,44.7078 V 32.9129 h -0.0493 l 0.0493,-0.0852 -5.2805,-3.0461 5.2805,-3.0464 -0.0016,-0.0028 0.0016,-8e-4 V 14.8203 h -0.025 l 0.025,-0.043 L 25.625,0.0160156 25.616,0 m 2.5453,31.4313 v 0 L 28.2031,7.69219 45.9105,17.8406 v 5.8313 l -5.2839,3.048 -5.3832,-3.1054 v 6.1226 l 10.6671,6.1535 v 5.7539 L 25.6121,53.3543 5.30352,41.6387 V 17.8406 L 22.8578,7.72344 V 28.3641 l -4.2305,-2.4469 -5.3039,3.0598 15.8579,9.1742 5.3062,-3.0614 -6.3262,-3.6585" /><path
       inkscape:connector-curvature="0"
       id="path34"
       style="fill:#616364;fill-opacity:1;fill-rule:nonzero;stroke:none;stroke-width:0.1"
       d="m 84.1941,37.8578 c -0.4558,-3.3226 -0.1628,-4.1043 1.9547,-4.1043 2.0524,0 2.7039,0.8797 3.225,4.5606 0.5211,3.3879 0.1629,4.1699 -1.8242,4.1699 -2.15,0 -2.8016,-0.8149 -3.3555,-4.6262 z m 11.3043,0 C 94.6188,31.766 92.143,29.616 85.9535,29.616 c -6.157,0 -8.8281,2.3453 -7.916,8.6981 0.8469,6.1566 3.3227,8.3398 9.6098,8.3398 6.2222,0 8.7632,-2.4109 7.8511,-8.7961" /><path
       inkscape:connector-curvature="0"
       id="path36"
       style="fill:#616364;fill-opacity:1;fill-rule:nonzero;stroke:none;stroke-width:0.1"
       d="m 103.803,37.8578 c -0.456,-3.3226 -0.163,-4.1043 1.955,-4.1043 2.052,0 2.704,0.8797 3.225,4.5606 0.521,3.3879 0.163,4.1699 -1.824,4.1699 -2.15,0 -2.802,-0.8149 -3.356,-4.6262 z m 11.304,0 c -0.88,-6.0918 -3.355,-8.2418 -9.544,-8.2418 -6.1575,0 -8.8286,2.3453 -7.9165,8.6981 0.8469,6.1566 3.3225,8.3398 9.6095,8.3398 6.222,0 8.763,-2.4109 7.851,-8.7961" /><path
       inkscape:connector-curvature="0"
       id="path38"
       style="fill:#616364;fill-opacity:1;fill-rule:nonzero;stroke:none;stroke-width:0.1"
       d="m 123.347,35.5121 c -0.163,-1.0094 0.13,-1.2699 1.368,-1.2699 h 1.368 l 0.326,-3.9746 c -0.945,-0.4887 -3.257,-0.684 -4.267,-0.684 -3.356,0 -5.212,1.759 -4.854,4.6258 l 2.638,18.6011 h 5.897 l -2.476,-17.2984" /><path
       inkscape:connector-curvature="0"
       id="path40"
       style="fill:#616364;fill-opacity:1;fill-rule:nonzero;stroke:none;stroke-width:0.1"
       d="m 134.357,33.7855 c 0.782,-0.0648 1.531,-0.0972 2.02,-0.0648 2.313,0.0648 3.029,0.8469 3.615,4.691 0.424,2.9649 0.196,3.5512 -1.01,3.5512 -1.172,0 -2.377,-0.6191 -3.648,-1.5965 z m 2.02,14.3016 c -0.131,-1.4332 -0.424,-2.7367 -0.978,-4.1371 1.596,1.5309 3.746,2.6711 6.027,2.6711 3.909,0 5.473,-2.5086 4.56,-8.6328 -0.749,-5.1145 -2.768,-8.3723 -9.023,-8.3723 -2.443,0 -7.004,0.4563 -8.959,1.3031 l 3.063,21.8914 h 5.928 l -0.618,-4.7234" /><path
       inkscape:connector-curvature="0"
       id="path42"
       style="fill:#616364;fill-opacity:1;fill-rule:nonzero;stroke:none;stroke-width:0.1"
       d="m 154.324,37.8578 c -0.456,-3.3226 -0.163,-4.1043 1.955,-4.1043 2.052,0 2.704,0.8797 3.225,4.5606 0.521,3.3879 0.163,4.1699 -1.824,4.1699 -2.151,0 -2.802,-0.8149 -3.356,-4.6262 z m 11.304,0 c -0.879,-6.0918 -3.355,-8.2418 -9.544,-8.2418 -6.158,0 -8.829,2.3453 -7.917,8.6981 0.847,6.1566 3.323,8.3398 9.61,8.3398 6.222,0 8.763,-2.4109 7.851,-8.7961" /><path
       inkscape:connector-curvature="0"
       id="path44"
       style="fill:#616364;fill-opacity:1;fill-rule:nonzero;stroke:none;stroke-width:0.1"
       d="m 184.065,30.007 h -5.603 l -2.607,6.4825 -4.495,-6.4825 h -6.157 l 5.994,8.2746 -3.29,7.9157 h 5.538 l 2.41,-6.0914 4.235,6.0914 h 5.995 l -5.604,-7.9157 3.584,-8.2746" /><path
       inkscape:connector-curvature="0"
       id="path46"
       style="fill:#393536;fill-opacity:1;fill-rule:nonzero;stroke:none;stroke-width:0.1"
       d="m 70.7141,15.0223 c 1.35,0 1.8367,0.3418 2.0168,1.6925 0.1796,1.1707 -0.1801,1.4227 -1.4766,1.4227 H 69.2555 L 68.8234,15.0223 Z M 69.9758,9.60234 c 1.5844,0 2.0703,0.34297 2.2867,1.78316 0.1977,1.4219 -0.1621,1.7637 -1.6207,1.7825 H 68.5531 L 68.0492,9.60234 Z M 66.8426,20.082 c 1.4047,0.1258 2.557,0.1434 4.5195,0.1434 3.0973,0 4.3574,-0.7383 4.0152,-3.3484 -0.2519,-1.7286 -0.9179,-2.593 -2.5207,-2.7375 L 72.8387,14.032 c 1.8906,-0.1445 2.4125,-1.4043 2.1246,-3.3847 -0.3781,-2.5391 -1.5848,-3.13285 -4.5195,-3.13285 -2.4668,0 -3.7629,0.01758 -5.3477,0.14375 l 1.7465,12.4238" /><path
       inkscape:connector-curvature="0"
       id="path48"
       style="fill:#393536;fill-opacity:1;fill-rule:nonzero;stroke:none;stroke-width:0.1"
       d="m 79.875,13.7617 c -0.4684,-3.2402 -0.0902,-4.12303 1.7645,-4.12303 1.8906,0 2.5566,0.91793 3.0609,4.33983 0.4859,3.3309 0.0539,4.1231 -1.7828,4.1231 -1.9086,0 -2.5383,-0.8828 -3.0426,-4.3399 z m 7.6883,0 C 86.8969,8.82813 85.2945,7.42383 81.5852,7.42383 c -3.7805,0 -5.2575,1.54883 -4.5914,6.55467 0.6667,4.8067 2.2152,6.3379 6.0144,6.3379 3.6906,0 5.2391,-1.5851 4.5551,-6.5547" /><path
       inkscape:connector-curvature="0"
       id="path50"
       style="fill:#393536;fill-opacity:1;fill-rule:nonzero;stroke:none;stroke-width:0.1"
       d="m 91.7902,9.67461 c 0.595,0 1.1711,-0.01758 1.6387,-0.01758 2.1426,0 2.9348,0.59377 3.4395,4.32147 0.5039,3.4922 0.1074,4.1231 -1.9989,4.1231 L 92.9789,18.0828 Z M 90.5121,20.082 c 1.2969,0.0899 3.1328,0.1621 4.4473,0.1621 3.9793,0 5.4916,-1.4953 4.7898,-6.4824 -0.7566,-5.36522 -2.3047,-6.26561 -6.284,-6.26561 -1.5304,0 -3.223,0.07227 -4.6992,0.16211 l 1.7461,12.4238" /><path
       inkscape:connector-curvature="0"
       id="path52"
       style="fill:#393536;fill-opacity:1;fill-rule:nonzero;stroke:none;stroke-width:0.1"
       d="m 105.975,17.9207 c -0.685,0 -0.954,-0.2332 -1.045,-0.9715 l -0.27,-1.873 h 4.898 l -0.252,-1.9446 h -4.916 l -0.323,-2.3945 c -0.091,-0.666 0.126,-0.91796 0.809,-0.91796 h 4.592 L 109.396,7.78398 C 107.811,7.6043 105.759,7.6043 104.012,7.6043 c -2.07,0 -2.971,1.18867 -2.736,2.9883 l 0.99,7.0949 c 0.216,1.5117 1.242,2.448 2.971,2.448 1.98,0 4.087,-0.0175 5.725,-0.198 l -0.342,-2.0168 h -4.645" /><path
       inkscape:connector-curvature="0"
       id="path54"
       style="fill:#393536;fill-opacity:1;fill-rule:nonzero;stroke:none;stroke-width:0.1"
       d="M 121.817,8.59453 C 121.726,7.94609 121.438,7.6582 120.79,7.6582 h -1.53 c -0.595,0 -0.793,0.32422 -1.026,0.86407 l -2.467,6.62613 c -0.198,0.5223 -0.414,1.2606 -0.54,1.8719 h -0.181 c -0.017,-0.6473 -0.054,-1.2781 -0.143,-1.9441 l -1.027,-7.418 h -2.611 l 1.621,11.4871 c 0.09,0.6485 0.396,0.9367 1.044,0.9367 h 1.513 c 0.576,0 0.792,-0.3242 1.007,-0.8644 l 2.395,-6.4102 c 0.217,-0.5574 0.469,-1.2781 0.648,-2.0164 h 0.216 c 0,0.7207 0.036,1.3328 0.127,1.9988 l 0.99,7.2922 h 2.611 l -1.62,-11.48747" /><path
       inkscape:connector-curvature="0"
       id="path56"
       style="fill:#393536;fill-opacity:1;fill-rule:nonzero;stroke:none;stroke-width:0.1"
       d="m 127.124,13.3301 c -1.872,0.7742 -2.341,1.9617 -2.125,3.6551 0.379,2.7902 1.927,3.3312 4.826,3.3312 1.279,0 2.755,-0.1262 4.051,-0.5051 l -0.27,-1.8543 c -1.08,0.036 -2.521,0.0547 -3.853,0.0547 -1.314,0.0176 -1.837,-0.0187 -2.016,-1.1887 -0.126,-0.8464 0.089,-1.0261 0.99,-1.3691 l 2.232,-0.8641 c 1.963,-0.7734 2.377,-1.8359 2.143,-3.6906 -0.36,-2.791 -1.603,-3.47537 -4.898,-3.47537 -0.864,0 -2.484,0.09062 -4.266,0.48633 l 0.288,1.96289 c 2.286,-0.05391 3.331,-0.08985 3.871,-0.08985 1.638,0 2.124,0.19727 2.286,1.2781 0.108,0.8457 -0.126,1.0266 -0.9,1.3145 l -2.359,0.9543" /><path
       inkscape:connector-curvature="0"
       id="path58"
       style="fill:#393536;fill-opacity:1;fill-rule:nonzero;stroke:none;stroke-width:0.1"
       d="m 139.58,17.9207 c -0.684,0 -0.954,-0.2332 -1.045,-0.9715 l -0.269,-1.873 h 4.897 l -0.252,-1.9446 h -4.916 l -0.323,-2.3945 c -0.091,-0.666 0.126,-0.91796 0.81,-0.91796 h 4.592 L 143.001,7.78398 C 141.416,7.6043 139.365,7.6043 137.617,7.6043 c -2.07,0 -2.97,1.18867 -2.736,2.9883 l 0.99,7.0949 c 0.216,1.5117 1.243,2.448 2.971,2.448 1.981,0 4.087,-0.0175 5.726,-0.198 l -0.342,-2.0168 h -4.646" /><path
       inkscape:connector-curvature="0"
       id="path60"
       style="fill:#393536;fill-opacity:1;fill-rule:nonzero;stroke:none;stroke-width:0.1"
       d="m 149.876,17.9207 c -0.684,0 -0.954,-0.2332 -1.044,-0.9715 l -0.27,-1.873 h 4.897 l -0.252,-1.9446 h -4.916 l -0.324,-2.3945 c -0.09,-0.666 0.127,-0.91796 0.811,-0.91796 h 4.591 L 153.297,7.78398 C 151.713,7.6043 149.66,7.6043 147.913,7.6043 c -2.07,0 -2.97,1.18867 -2.736,2.9883 l 0.99,7.0949 c 0.216,1.5117 1.242,2.448 2.971,2.448 1.98,0 4.087,-0.0175 5.726,-0.198 l -0.342,-2.0168 h -4.646" /><path
       inkscape:connector-curvature="0"
       id="path62"
       style="fill:#393536;fill-opacity:1;fill-rule:nonzero;stroke:none;stroke-width:0.1"
       d="m 164.15,12.8262 c 0.9,0.0711 1.35,0.2695 1.459,1.1523 0.071,0.8281 -0.288,0.8817 -1.405,0.8641 -1.369,0 -1.819,-0.4141 -2.125,-2.2149 z m 3.151,-4.75393 C 166.185,7.6043 164.6,7.44219 163.394,7.44219 c -3.476,0 -4.537,1.63867 -4.159,4.84301 0.431,3.5652 1.89,4.5019 5.149,4.5019 3.277,0 4.069,-1.1711 3.799,-3.0617 -0.252,-1.7285 -1.351,-2.3047 -3.637,-2.4668 l -2.629,-0.1973 c 0.036,-1.26052 0.666,-1.49489 1.782,-1.49489 0.865,0 2.36,0.07226 3.422,0.19804 l 0.18,-1.69218" /><path
       inkscape:connector-curvature="0"
       id="path64"
       style="fill:#393536;fill-opacity:1;fill-rule:nonzero;stroke:none;stroke-width:0.1"
       d="m 170.809,10.377 c 0.648,0 0.973,-0.3243 0.883,-0.9727 L 171.566,8.53984 C 171.493,7.94609 171.187,7.6582 170.557,7.6582 h -0.666 c -0.685,0 -0.973,0.32422 -0.901,0.99024 l 0.126,0.86406 c 0.09,0.6125 0.415,0.8645 1.027,0.8645 h 0.666" /><path
       inkscape:connector-curvature="0"
       id="path66"
       style="fill:#393536;fill-opacity:1;fill-rule:nonzero;stroke:none;stroke-width:0.1"
       d="m 179.523,8.36016 c -0.18,-0.45 -0.504,-0.70196 -0.991,-0.70196 h -2.484 c -0.468,0 -0.828,0.36016 -0.882,0.7918 l -1.764,11.632 h 2.772 l 0.973,-8.9308 c 0.053,-0.4864 0.09,-0.9903 0.107,-1.45901 h 0.45 c 0.126,0.48631 0.307,1.00901 0.487,1.47661 l 3.493,8.9132 h 2.898 L 179.523,8.36016" /><path
       inkscape:connector-curvature="0"
       id="path68"
       style="fill:#393536;fill-opacity:1;fill-rule:nonzero;stroke:none;stroke-width:0.1"
       d="m 185.082,10.377 c 0.649,0 0.973,-0.3243 0.883,-0.9727 L 185.839,8.53984 C 185.767,7.94609 185.46,7.6582 184.83,7.6582 h -0.666 c -0.684,0 -0.972,0.32422 -0.9,0.99024 l 0.126,0.86406 c 0.09,0.6125 0.414,0.8645 1.026,0.8645 h 0.666" /><path
       inkscape:connector-curvature="0"
       id="path70"
       style="fill:#616364;fill-opacity:1;fill-rule:nonzero;stroke:none;stroke-width:0.1"
       d="M 74.5688,47.4039 72.0984,29.7816 h -7.2425 l 2.4703,17.6223 h -6.3414 l 0.7679,5.4066 h 19.9578 l -0.7664,-5.4066 h -6.3753" /></g></svg>